solid square.SLDPRT
   facet normal -1.000000e+00 0.000000e+00 0.000000e+00
      outer loop
         vertex 7.500000e-01 1.750000e+00 2.250000e+00
         vertex 7.500000e-01 2.250000e+00 2.250000e+00
         vertex 7.500000e-01 1.750000e+00 1.750000e+00
      endloop
   endfacet
   facet normal -1.000000e+00 0.000000e+00 0.000000e+00
      outer loop
         vertex 7.500000e-01 1.750000e+00 1.750000e+00
         vertex 7.500000e-01 2.250000e+00 2.250000e+00
         vertex 7.500000e-01 2.250000e+00 1.750000e+00
      endloop
   endfacet
   facet normal -0.000000e+00 -1.000000e+00 -0.000000e+00
      outer loop
         vertex 1.250000e+00 1.750000e+00 2.250000e+00
         vertex 7.500000e-01 1.750000e+00 2.250000e+00
         vertex 1.250000e+00 1.750000e+00 1.750000e+00
      endloop
   endfacet
   facet normal 0.000000e+00 -1.000000e+00 0.000000e+00
      outer loop
         vertex 1.250000e+00 1.750000e+00 1.750000e+00
         vertex 7.500000e-01 1.750000e+00 2.250000e+00
         vertex 7.500000e-01 1.750000e+00 1.750000e+00
      endloop
   endfacet
   facet normal 1.000000e+00 0.000000e+00 0.000000e+00
      outer loop
         vertex 1.250000e+00 2.250000e+00 2.250000e+00
         vertex 1.250000e+00 1.750000e+00 2.250000e+00
         vertex 1.250000e+00 2.250000e+00 1.750000e+00
      endloop
   endfacet
   facet normal 1.000000e+00 0.000000e+00 0.000000e+00
      outer loop
         vertex 1.250000e+00 2.250000e+00 1.750000e+00
         vertex 1.250000e+00 1.750000e+00 2.250000e+00
         vertex 1.250000e+00 1.750000e+00 1.750000e+00
      endloop
   endfacet
   facet normal -0.000000e+00 1.000000e+00 0.000000e+00
      outer loop
         vertex 7.500000e-01 2.250000e+00 2.250000e+00
         vertex 1.250000e+00 2.250000e+00 2.250000e+00
         vertex 7.500000e-01 2.250000e+00 1.750000e+00
      endloop
   endfacet
   facet normal 0.000000e+00 1.000000e+00 0.000000e+00
      outer loop
         vertex 7.500000e-01 2.250000e+00 1.750000e+00
         vertex 1.250000e+00 2.250000e+00 2.250000e+00
         vertex 1.250000e+00 2.250000e+00 1.750000e+00
      endloop
   endfacet
   facet normal 0.000000e+00 -0.000000e+00 1.000000e+00
      outer loop
         vertex 1.250000e+00 1.750000e+00 2.250000e+00
         vertex 1.250000e+00 2.250000e+00 2.250000e+00
         vertex 7.500000e-01 1.750000e+00 2.250000e+00
      endloop
   endfacet
   facet normal 0.000000e+00 0.000000e+00 1.000000e+00
      outer loop
         vertex 7.500000e-01 1.750000e+00 2.250000e+00
         vertex 1.250000e+00 2.250000e+00 2.250000e+00
         vertex 7.500000e-01 2.250000e+00 2.250000e+00
      endloop
   endfacet
   facet normal -0.000000e+00 -0.000000e+00 -1.000000e+00
      outer loop
         vertex 1.250000e+00 2.250000e+00 1.750000e+00
         vertex 1.250000e+00 1.750000e+00 1.750000e+00
         vertex 7.500000e-01 2.250000e+00 1.750000e+00
      endloop
   endfacet
   facet normal 0.000000e+00 0.000000e+00 -1.000000e+00
      outer loop
         vertex 7.500000e-01 2.250000e+00 1.750000e+00
         vertex 1.250000e+00 1.750000e+00 1.750000e+00
         vertex 7.500000e-01 1.750000e+00 1.750000e+00
      endloop
   endfacet
endsolid square.SLDPRT