solid square_0.5m_12
   facet normal 0.000000e+00 1.000000e+00 0.000000e+00
      outer loop
         vertex 1.250000e+00 1.250000e+00 1.250000e+00
         vertex 1.250000e+00 1.250000e+00 7.500000e-01
         vertex 7.500000e-01 1.250000e+00 1.250000e+00
      endloop
   endfacet
   facet normal 0.000000e+00 1.000000e+00 0.000000e+00
      outer loop
         vertex 7.500000e-01 1.250000e+00 1.250000e+00
         vertex 1.250000e+00 1.250000e+00 7.500000e-01
         vertex 7.500000e-01 1.250000e+00 7.500000e-01
      endloop
   endfacet
   facet normal 1.000000e+00 -0.000000e+00 0.000000e+00
      outer loop
         vertex 1.250000e+00 7.500000e-01 1.250000e+00
         vertex 1.250000e+00 7.500000e-01 7.500000e-01
         vertex 1.250000e+00 1.250000e+00 1.250000e+00
      endloop
   endfacet
   facet normal 1.000000e+00 0.000000e+00 0.000000e+00
      outer loop
         vertex 1.250000e+00 1.250000e+00 1.250000e+00
         vertex 1.250000e+00 7.500000e-01 7.500000e-01
         vertex 1.250000e+00 1.250000e+00 7.500000e-01
      endloop
   endfacet
   facet normal 0.000000e+00 -1.000000e+00 0.000000e+00
      outer loop
         vertex 7.500000e-01 7.500000e-01 1.250000e+00
         vertex 7.500000e-01 7.500000e-01 7.500000e-01
         vertex 1.250000e+00 7.500000e-01 1.250000e+00
      endloop
   endfacet
   facet normal 0.000000e+00 -1.000000e+00 -0.000000e+00
      outer loop
         vertex 1.250000e+00 7.500000e-01 1.250000e+00
         vertex 7.500000e-01 7.500000e-01 7.500000e-01
         vertex 1.250000e+00 7.500000e-01 7.500000e-01
      endloop
   endfacet
   facet normal -1.000000e+00 -0.000000e+00 -0.000000e+00
      outer loop
         vertex 7.500000e-01 1.250000e+00 1.250000e+00
         vertex 7.500000e-01 1.250000e+00 7.500000e-01
         vertex 7.500000e-01 7.500000e-01 1.250000e+00
      endloop
   endfacet
   facet normal -1.000000e+00 0.000000e+00 0.000000e+00
      outer loop
         vertex 7.500000e-01 7.500000e-01 1.250000e+00
         vertex 7.500000e-01 1.250000e+00 7.500000e-01
         vertex 7.500000e-01 7.500000e-01 7.500000e-01
      endloop
   endfacet
   facet normal 0.000000e+00 0.000000e+00 -1.000000e+00
      outer loop
         vertex 1.250000e+00 7.500000e-01 7.500000e-01
         vertex 7.500000e-01 7.500000e-01 7.500000e-01
         vertex 1.250000e+00 1.250000e+00 7.500000e-01
      endloop
   endfacet
   facet normal -0.000000e+00 0.000000e+00 -1.000000e+00
      outer loop
         vertex 1.250000e+00 1.250000e+00 7.500000e-01
         vertex 7.500000e-01 7.500000e-01 7.500000e-01
         vertex 7.500000e-01 1.250000e+00 7.500000e-01
      endloop
   endfacet
   facet normal 0.000000e+00 0.000000e+00 1.000000e+00
      outer loop
         vertex 7.500000e-01 7.500000e-01 1.250000e+00
         vertex 1.250000e+00 7.500000e-01 1.250000e+00
         vertex 7.500000e-01 1.250000e+00 1.250000e+00
      endloop
   endfacet
   facet normal -0.000000e+00 0.000000e+00 1.000000e+00
      outer loop
         vertex 7.500000e-01 1.250000e+00 1.250000e+00
         vertex 1.250000e+00 7.500000e-01 1.250000e+00
         vertex 1.250000e+00 1.250000e+00 1.250000e+00
      endloop
   endfacet
endsolid