<?xml version="1.0"?>
<VTKFile type="PolyData" version="1.0" byte_order="LittleEndian" header_type="UInt64">
  <PolyData>
    <Piece NumberOfPoints="1000" NumberOfPolys="1000">
      <Points>
        <DataArray type="Float64" Name="Points" NumberOfComponents="3" format="ascii">
0.6 -0.5 0.0 0.599998 -0.499372 0.0 0.599992 -0.498743 0.0 0.599982 -0.498115 0.0 0.599968 -0.497487 0.0 0.599951 -0.496859 0.0 0.599929 -0.496231 0.0 0.599903 -0.495603 0.0 0.599874 -0.494976 0.0 0.59984 -0.494348 0.0 0.599803 -0.493721 0.0 0.599761 -0.493094 0.0 0.599716 -0.492467 0.0 0.599667 -0.491841 0.0 0.599613 -0.491215 0.0 0.599556 -0.490589 0.0 0.599495 -0.489964 0.0 0.59943 -0.489339 0.0 0.599361 -0.488714 0.0 0.599288 -0.48809 0.0 0.599211 -0.487467 0.0 0.599131 -0.486844 0.0 0.599046 -0.486221 0.0 0.598958 -0.485599 0.0 0.598865 -0.484977 0.0 0.598769 -0.484357 0.0 0.598669 -0.483736 0.0 0.598564 -0.483117 0.0 0.598456 -0.482498 0.0 0.598345 -0.481879 0.0 0.598229 -0.481262 0.0 0.598109 -0.480645 0.0 0.597986 -0.480029 0.0 0.597858 -0.479414 0.0 0.597727 -0.478799 0.0 0.597592 -0.478186 0.0 0.597453 -0.477573 0.0 0.59731 -0.476961 0.0 0.597163 -0.47635 0.0 0.597013 -0.47574 0.0 0.596858 -0.475131 0.0 0.5967 -0.474523 0.0 0.596538 -0.473916 0.0 0.596372 -0.47331 0.0 0.596203 -0.472705 0.0 0.596029 -0.472101 0.0 0.595852 -0.471498 0.0 0.595671 -0.470896 0.0 0.595486 -0.470296 0.0 0.595298 -0.469696 0.0 0.595106 -0.469098 0.0 0.59491 -0.468501 0.0 0.59471 -0.467906 0.0 0.594506 -0.467311 0.0 0.594299 -0.466718 0.0 0.594088 -0.466126 0.0 0.593873 -0.465536 0.0 0.593655 -0.464947 0.0 0.593433 -0.464359 0.0 0.593207 -0.463772 0.0 0.592978 -0.463188 0.0 0.592745 -0.462604 0.0 0.592508 -0.462022 0.0 0.592267 -0.461442 0.0 0.592023 -0.460863 0.0 0.591775 -0.460285 0.0 0.591524 -0.459709 0.0 0.591269 -0.459135 0.0 0.591011 -0.458562 0.0 0.590748 -0.457991 0.0 0.590483 -0.457422 0.0 0.590213 -0.456854 0.0 0.589941 -0.456288 0.0 0.589664 -0.455724 0.0 0.589384 -0.455162 0.0 0.589101 -0.454601 0.0 0.588814 -0.454042 0.0 0.588523 -0.453485 0.0 0.588229 -0.45293 0.0 0.587932 -0.452376 0.0 0.587631 -0.451825 0.0 0.587326 -0.451275 0.0 0.587018 -0.450727 0.0 0.586707 -0.450181 0.0 0.586392 -0.449638 0.0 0.586074 -0.449096 0.0 0.585753 -0.448556 0.0 0.585428 -0.448018 0.0 0.585099 -0.447483 0.0 0.584768 -0.446949 0.0 0.584433 -0.446417 0.0 0.584094 -0.445888 0.0 0.583753 -0.445361 0.0 0.583408 -0.444835 0.0 0.58306 -0.444312 0.0 0.582708 -0.443792 0.0 0.582353 -0.443273 0.0 0.581995 -0.442757 0.0 0.581634 -0.442243 0.0 0.581269 -0.441731 0.0 0.580902 -0.441221 0.0 0.580531 -0.440714 0.0 0.580157 -0.44021 0.0 0.579779 -0.439707 0.0 0.579399 -0.439207 0.0 0.579016 -0.438709 0.0 0.578629 -0.438214 0.0 0.578239 -0.437721 0.0 0.577846 -0.437231 0.0 0.57745 -0.436743 0.0 0.577051 -0.436258 0.0 0.576649 -0.435775 0.0 0.576244 -0.435294 0.0 0.575836 -0.434817 0.0 0.575425 -0.434341 0.0 0.575011 -0.433869 0.0 0.574594 -0.433399 0.0 0.574174 -0.432931 0.0 0.573751 -0.432467 0.0 0.573326 -0.432005 0.0 0.572897 -0.431545 0.0 0.572465 -0.431089 0.0 0.572031 -0.430635 0.0 0.571594 -0.430183 0.0 0.571154 -0.429735 0.0 0.570711 -0.429289 0.0 0.570265 -0.428846 0.0 0.569817 -0.428406 0.0 0.569365 -0.427969 0.0 0.568911 -0.427535 0.0 0.568455 -0.427103 0.0 0.567995 -0.426674 0.0 0.567533 -0.426249 0.0 0.567069 -0.425826 0.0 0.566601 -0.425406 0.0 0.566131 -0.424989 0.0 0.565659 -0.424575 0.0 0.565183 -0.424164 0.0 0.564706 -0.423756 0.0 0.564225 -0.423351 0.0 0.563742 -0.422949 0.0 0.563257 -0.42255 0.0 0.562769 -0.422154 0.0 0.562279 -0.421761 0.0 0.561786 -0.421371 0.0 0.561291 -0.420984 0.0 0.560793 -0.420601 0.0 0.560293 -0.420221 0.0 0.55979 -0.419843 0.0 0.559286 -0.419469 0.0 0.558779 -0.419098 0.0 0.558269 -0.418731 0.0 0.557757 -0.418366 0.0 0.557243 -0.418005 0.0 0.556727 -0.417647 0.0 0.556208 -0.417292 0.0 0.555688 -0.41694 0.0 0.555165 -0.416592 0.0 0.554639 -0.416247 0.0 0.554112 -0.415906 0.0 0.553583 -0.415567 0.0 0.553051 -0.415232 0.0 0.552517 -0.414901 0.0 0.551982 -0.414572 0.0 0.551444 -0.414247 0.0 0.550904 -0.413926 0.0 0.550362 -0.413608 0.0 0.549819 -0.413293 0.0 0.549273 -0.412982 0.0 0.548725 -0.412674 0.0 0.548175 -0.412369 0.0 0.547624 -0.412068 0.0 0.54707 -0.411771 0.0 0.546515 -0.411477 0.0 0.545958 -0.411186 0.0 0.545399 -0.410899 0.0 0.544838 -0.410616 0.0 0.544276 -0.410336 0.0 0.543712 -0.410059 0.0 0.543146 -0.409787 0.0 0.542578 -0.409517 0.0 0.542009 -0.409252 0.0 0.541438 -0.408989 0.0 0.540865 -0.408731 0.0 0.540291 -0.408476 0.0 0.539715 -0.408225 0.0 0.539137 -0.407977 0.0 0.538558 -0.407733 0.0 0.537978 -0.407492 0.0 0.537396 -0.407255 0.0 0.536812 -0.407022 0.0 0.536228 -0.406793 0.0 0.535641 -0.406567 0.0 0.535053 -0.406345 0.0 0.534464 -0.406127 0.0 0.533874 -0.405912 0.0 0.533282 -0.405701 0.0 0.532689 -0.405494 0.0 0.532094 -0.40529 0.0 0.531499 -0.40509 0.0 0.530902 -0.404894 0.0 0.530304 -0.404702 0.0 0.529704 -0.404514 0.0 0.529104 -0.404329 0.0 0.528502 -0.404148 0.0 0.527899 -0.403971 0.0 0.527295 -0.403797 0.0 0.52669 -0.403628 0.0 0.526084 -0.403462 0.0 0.525477 -0.4033 0.0 0.524869 -0.403142 0.0 0.52426 -0.402987 0.0 0.52365 -0.402837 0.0 0.523039 -0.40269 0.0 0.522427 -0.402547 0.0 0.521814 -0.402408 0.0 0.521201 -0.402273 0.0 0.520586 -0.402142 0.0 0.519971 -0.402014 0.0 0.519355 -0.401891 0.0 0.518738 -0.401771 0.0 0.518121 -0.401655 0.0 0.517502 -0.401544 0.0 0.516883 -0.401436 0.0 0.516264 -0.401331 0.0 0.515643 -0.401231 0.0 0.515023 -0.401135 0.0 0.514401 -0.401042 0.0 0.513779 -0.400954 0.0 0.513156 -0.400869 0.0 0.512533 -0.400789 0.0 0.51191 -0.400712 0.0 0.511286 -0.400639 0.0 0.510661 -0.40057 0.0 0.510036 -0.400505 0.0 0.509411 -0.400444 0.0 0.508785 -0.400387 0.0 0.508159 -0.400333 0.0 0.507533 -0.400284 0.0 0.506906 -0.400239 0.0 0.506279 -0.400197 0.0 0.505652 -0.40016 0.0 0.505024 -0.400126 0.0 0.504397 -0.400097 0.0 0.503769 -0.400071 0.0 0.503141 -0.400049 0.0 0.502513 -0.400032 0.0 0.501885 -0.400018 0.0 0.501257 -0.400008 0.0 0.500628 -0.400002 0.0 0.5 -0.4 0.0 0.499372 -0.400002 0.0 0.498743 -0.400008 0.0 0.498115 -0.400018 0.0 0.497487 -0.400032 0.0 0.496859 -0.400049 0.0 0.496231 -0.400071 0.0 0.495603 -0.400097 0.0 0.494976 -0.400126 0.0 0.494348 -0.40016 0.0 0.493721 -0.400197 0.0 0.493094 -0.400239 0.0 0.492467 -0.400284 0.0 0.491841 -0.400333 0.0 0.491215 -0.400387 0.0 0.490589 -0.400444 0.0 0.489964 -0.400505 0.0 0.489339 -0.40057 0.0 0.488714 -0.400639 0.0 0.48809 -0.400712 0.0 0.487467 -0.400789 0.0 0.486844 -0.400869 0.0 0.486221 -0.400954 0.0 0.485599 -0.401042 0.0 0.484977 -0.401135 0.0 0.484357 -0.401231 0.0 0.483736 -0.401331 0.0 0.483117 -0.401436 0.0 0.482498 -0.401544 0.0 0.481879 -0.401655 0.0 0.481262 -0.401771 0.0 0.480645 -0.401891 0.0 0.480029 -0.402014 0.0 0.479414 -0.402142 0.0 0.478799 -0.402273 0.0 0.478186 -0.402408 0.0 0.477573 -0.402547 0.0 0.476961 -0.40269 0.0 0.47635 -0.402837 0.0 0.47574 -0.402987 0.0 0.475131 -0.403142 0.0 0.474523 -0.4033 0.0 0.473916 -0.403462 0.0 0.47331 -0.403628 0.0 0.472705 -0.403797 0.0 0.472101 -0.403971 0.0 0.471498 -0.404148 0.0 0.470896 -0.404329 0.0 0.470296 -0.404514 0.0 0.469696 -0.404702 0.0 0.469098 -0.404894 0.0 0.468501 -0.40509 0.0 0.467906 -0.40529 0.0 0.467311 -0.405494 0.0 0.466718 -0.405701 0.0 0.466126 -0.405912 0.0 0.465536 -0.406127 0.0 0.464947 -0.406345 0.0 0.464359 -0.406567 0.0 0.463772 -0.406793 0.0 0.463188 -0.407022 0.0 0.462604 -0.407255 0.0 0.462022 -0.407492 0.0 0.461442 -0.407733 0.0 0.460863 -0.407977 0.0 0.460285 -0.408225 0.0 0.459709 -0.408476 0.0 0.459135 -0.408731 0.0 0.458562 -0.408989 0.0 0.457991 -0.409252 0.0 0.457422 -0.409517 0.0 0.456854 -0.409787 0.0 0.456288 -0.410059 0.0 0.455724 -0.410336 0.0 0.455162 -0.410616 0.0 0.454601 -0.410899 0.0 0.454042 -0.411186 0.0 0.453485 -0.411477 0.0 0.45293 -0.411771 0.0 0.452376 -0.412068 0.0 0.451825 -0.412369 0.0 0.451275 -0.412674 0.0 0.450727 -0.412982 0.0 0.450181 -0.413293 0.0 0.449638 -0.413608 0.0 0.449096 -0.413926 0.0 0.448556 -0.414247 0.0 0.448018 -0.414572 0.0 0.447483 -0.414901 0.0 0.446949 -0.415232 0.0 0.446417 -0.415567 0.0 0.445888 -0.415906 0.0 0.445361 -0.416247 0.0 0.444835 -0.416592 0.0 0.444312 -0.41694 0.0 0.443792 -0.417292 0.0 0.443273 -0.417647 0.0 0.442757 -0.418005 0.0 0.442243 -0.418366 0.0 0.441731 -0.418731 0.0 0.441221 -0.419098 0.0 0.440714 -0.419469 0.0 0.44021 -0.419843 0.0 0.439707 -0.420221 0.0 0.439207 -0.420601 0.0 0.438709 -0.420984 0.0 0.438214 -0.421371 0.0 0.437721 -0.421761 0.0 0.437231 -0.422154 0.0 0.436743 -0.42255 0.0 0.436258 -0.422949 0.0 0.435775 -0.423351 0.0 0.435294 -0.423756 0.0 0.434817 -0.424164 0.0 0.434341 -0.424575 0.0 0.433869 -0.424989 0.0 0.433399 -0.425406 0.0 0.432931 -0.425826 0.0 0.432467 -0.426249 0.0 0.432005 -0.426674 0.0 0.431545 -0.427103 0.0 0.431089 -0.427535 0.0 0.430635 -0.427969 0.0 0.430183 -0.428406 0.0 0.429735 -0.428846 0.0 0.429289 -0.429289 0.0 0.428846 -0.429735 0.0 0.428406 -0.430183 0.0 0.427969 -0.430635 0.0 0.427535 -0.431089 0.0 0.427103 -0.431545 0.0 0.426674 -0.432005 0.0 0.426249 -0.432467 0.0 0.425826 -0.432931 0.0 0.425406 -0.433399 0.0 0.424989 -0.433869 0.0 0.424575 -0.434341 0.0 0.424164 -0.434817 0.0 0.423756 -0.435294 0.0 0.423351 -0.435775 0.0 0.422949 -0.436258 0.0 0.42255 -0.436743 0.0 0.422154 -0.437231 0.0 0.421761 -0.437721 0.0 0.421371 -0.438214 0.0 0.420984 -0.438709 0.0 0.420601 -0.439207 0.0 0.420221 -0.439707 0.0 0.419843 -0.44021 0.0 0.419469 -0.440714 0.0 0.419098 -0.441221 0.0 0.418731 -0.441731 0.0 0.418366 -0.442243 0.0 0.418005 -0.442757 0.0 0.417647 -0.443273 0.0 0.417292 -0.443792 0.0 0.41694 -0.444312 0.0 0.416592 -0.444835 0.0 0.416247 -0.445361 0.0 0.415906 -0.445888 0.0 0.415567 -0.446417 0.0 0.415232 -0.446949 0.0 0.414901 -0.447483 0.0 0.414572 -0.448018 0.0 0.414247 -0.448556 0.0 0.413926 -0.449096 0.0 0.413608 -0.449638 0.0 0.413293 -0.450181 0.0 0.412982 -0.450727 0.0 0.412674 -0.451275 0.0 0.412369 -0.451825 0.0 0.412068 -0.452376 0.0 0.411771 -0.45293 0.0 0.411477 -0.453485 0.0 0.411186 -0.454042 0.0 0.410899 -0.454601 0.0 0.410616 -0.455162 0.0 0.410336 -0.455724 0.0 0.410059 -0.456288 0.0 0.409787 -0.456854 0.0 0.409517 -0.457422 0.0 0.409252 -0.457991 0.0 0.408989 -0.458562 0.0 0.408731 -0.459135 0.0 0.408476 -0.459709 0.0 0.408225 -0.460285 0.0 0.407977 -0.460863 0.0 0.407733 -0.461442 0.0 0.407492 -0.462022 0.0 0.407255 -0.462604 0.0 0.407022 -0.463188 0.0 0.406793 -0.463772 0.0 0.406567 -0.464359 0.0 0.406345 -0.464947 0.0 0.406127 -0.465536 0.0 0.405912 -0.466126 0.0 0.405701 -0.466718 0.0 0.405494 -0.467311 0.0 0.40529 -0.467906 0.0 0.40509 -0.468501 0.0 0.404894 -0.469098 0.0 0.404702 -0.469696 0.0 0.404514 -0.470296 0.0 0.404329 -0.470896 0.0 0.404148 -0.471498 0.0 0.403971 -0.472101 0.0 0.403797 -0.472705 0.0 0.403628 -0.47331 0.0 0.403462 -0.473916 0.0 0.4033 -0.474523 0.0 0.403142 -0.475131 0.0 0.402987 -0.47574 0.0 0.402837 -0.47635 0.0 0.40269 -0.476961 0.0 0.402547 -0.477573 0.0 0.402408 -0.478186 0.0 0.402273 -0.478799 0.0 0.402142 -0.479414 0.0 0.402014 -0.480029 0.0 0.401891 -0.480645 0.0 0.401771 -0.481262 0.0 0.401655 -0.481879 0.0 0.401544 -0.482498 0.0 0.401436 -0.483117 0.0 0.401331 -0.483736 0.0 0.401231 -0.484357 0.0 0.401135 -0.484977 0.0 0.401042 -0.485599 0.0 0.400954 -0.486221 0.0 0.400869 -0.486844 0.0 0.400789 -0.487467 0.0 0.400712 -0.48809 0.0 0.400639 -0.488714 0.0 0.40057 -0.489339 0.0 0.400505 -0.489964 0.0 0.400444 -0.490589 0.0 0.400387 -0.491215 0.0 0.400333 -0.491841 0.0 0.400284 -0.492467 0.0 0.400239 -0.493094 0.0 0.400197 -0.493721 0.0 0.40016 -0.494348 0.0 0.400126 -0.494976 0.0 0.400097 -0.495603 0.0 0.400071 -0.496231 0.0 0.400049 -0.496859 0.0 0.400032 -0.497487 0.0 0.400018 -0.498115 0.0 0.400008 -0.498743 0.0 0.400002 -0.499372 0.0 0.4 -0.5 0.0 0.400002 -0.500628 0.0 0.400008 -0.501257 0.0 0.400018 -0.501885 0.0 0.400032 -0.502513 0.0 0.400049 -0.503141 0.0 0.400071 -0.503769 0.0 0.400097 -0.504397 0.0 0.400126 -0.505024 0.0 0.40016 -0.505652 0.0 0.400197 -0.506279 0.0 0.400239 -0.506906 0.0 0.400284 -0.507533 0.0 0.400333 -0.508159 0.0 0.400387 -0.508785 0.0 0.400444 -0.509411 0.0 0.400505 -0.510036 0.0 0.40057 -0.510661 0.0 0.400639 -0.511286 0.0 0.400712 -0.51191 0.0 0.400789 -0.512533 0.0 0.400869 -0.513156 0.0 0.400954 -0.513779 0.0 0.401042 -0.514401 0.0 0.401135 -0.515023 0.0 0.401231 -0.515643 0.0 0.401331 -0.516264 0.0 0.401436 -0.516883 0.0 0.401544 -0.517502 0.0 0.401655 -0.518121 0.0 0.401771 -0.518738 0.0 0.401891 -0.519355 0.0 0.402014 -0.519971 0.0 0.402142 -0.520586 0.0 0.402273 -0.521201 0.0 0.402408 -0.521814 0.0 0.402547 -0.522427 0.0 0.40269 -0.523039 0.0 0.402837 -0.52365 0.0 0.402987 -0.52426 0.0 0.403142 -0.524869 0.0 0.4033 -0.525477 0.0 0.403462 -0.526084 0.0 0.403628 -0.52669 0.0 0.403797 -0.527295 0.0 0.403971 -0.527899 0.0 0.404148 -0.528502 0.0 0.404329 -0.529104 0.0 0.404514 -0.529704 0.0 0.404702 -0.530304 0.0 0.404894 -0.530902 0.0 0.40509 -0.531499 0.0 0.40529 -0.532094 0.0 0.405494 -0.532689 0.0 0.405701 -0.533282 0.0 0.405912 -0.533874 0.0 0.406127 -0.534464 0.0 0.406345 -0.535053 0.0 0.406567 -0.535641 0.0 0.406793 -0.536228 0.0 0.407022 -0.536812 0.0 0.407255 -0.537396 0.0 0.407492 -0.537978 0.0 0.407733 -0.538558 0.0 0.407977 -0.539137 0.0 0.408225 -0.539715 0.0 0.408476 -0.540291 0.0 0.408731 -0.540865 0.0 0.408989 -0.541438 0.0 0.409252 -0.542009 0.0 0.409517 -0.542578 0.0 0.409787 -0.543146 0.0 0.410059 -0.543712 0.0 0.410336 -0.544276 0.0 0.410616 -0.544838 0.0 0.410899 -0.545399 0.0 0.411186 -0.545958 0.0 0.411477 -0.546515 0.0 0.411771 -0.54707 0.0 0.412068 -0.547624 0.0 0.412369 -0.548175 0.0 0.412674 -0.548725 0.0 0.412982 -0.549273 0.0 0.413293 -0.549819 0.0 0.413608 -0.550362 0.0 0.413926 -0.550904 0.0 0.414247 -0.551444 0.0 0.414572 -0.551982 0.0 0.414901 -0.552517 0.0 0.415232 -0.553051 0.0 0.415567 -0.553583 0.0 0.415906 -0.554112 0.0 0.416247 -0.554639 0.0 0.416592 -0.555165 0.0 0.41694 -0.555688 0.0 0.417292 -0.556208 0.0 0.417647 -0.556727 0.0 0.418005 -0.557243 0.0 0.418366 -0.557757 0.0 0.418731 -0.558269 0.0 0.419098 -0.558779 0.0 0.419469 -0.559286 0.0 0.419843 -0.55979 0.0 0.420221 -0.560293 0.0 0.420601 -0.560793 0.0 0.420984 -0.561291 0.0 0.421371 -0.561786 0.0 0.421761 -0.562279 0.0 0.422154 -0.562769 0.0 0.42255 -0.563257 0.0 0.422949 -0.563742 0.0 0.423351 -0.564225 0.0 0.423756 -0.564706 0.0 0.424164 -0.565183 0.0 0.424575 -0.565659 0.0 0.424989 -0.566131 0.0 0.425406 -0.566601 0.0 0.425826 -0.567069 0.0 0.426249 -0.567533 0.0 0.426674 -0.567995 0.0 0.427103 -0.568455 0.0 0.427535 -0.568911 0.0 0.427969 -0.569365 0.0 0.428406 -0.569817 0.0 0.428846 -0.570265 0.0 0.429289 -0.570711 0.0 0.429735 -0.571154 0.0 0.430183 -0.571594 0.0 0.430635 -0.572031 0.0 0.431089 -0.572465 0.0 0.431545 -0.572897 0.0 0.432005 -0.573326 0.0 0.432467 -0.573751 0.0 0.432931 -0.574174 0.0 0.433399 -0.574594 0.0 0.433869 -0.575011 0.0 0.434341 -0.575425 0.0 0.434817 -0.575836 0.0 0.435294 -0.576244 0.0 0.435775 -0.576649 0.0 0.436258 -0.577051 0.0 0.436743 -0.57745 0.0 0.437231 -0.577846 0.0 0.437721 -0.578239 0.0 0.438214 -0.578629 0.0 0.438709 -0.579016 0.0 0.439207 -0.579399 0.0 0.439707 -0.579779 0.0 0.44021 -0.580157 0.0 0.440714 -0.580531 0.0 0.441221 -0.580902 0.0 0.441731 -0.581269 0.0 0.442243 -0.581634 0.0 0.442757 -0.581995 0.0 0.443273 -0.582353 0.0 0.443792 -0.582708 0.0 0.444312 -0.58306 0.0 0.444835 -0.583408 0.0 0.445361 -0.583753 0.0 0.445888 -0.584094 0.0 0.446417 -0.584433 0.0 0.446949 -0.584768 0.0 0.447483 -0.585099 0.0 0.448018 -0.585428 0.0 0.448556 -0.585753 0.0 0.449096 -0.586074 0.0 0.449638 -0.586392 0.0 0.450181 -0.586707 0.0 0.450727 -0.587018 0.0 0.451275 -0.587326 0.0 0.451825 -0.587631 0.0 0.452376 -0.587932 0.0 0.45293 -0.588229 0.0 0.453485 -0.588523 0.0 0.454042 -0.588814 0.0 0.454601 -0.589101 0.0 0.455162 -0.589384 0.0 0.455724 -0.589664 0.0 0.456288 -0.589941 0.0 0.456854 -0.590213 0.0 0.457422 -0.590483 0.0 0.457991 -0.590748 0.0 0.458562 -0.591011 0.0 0.459135 -0.591269 0.0 0.459709 -0.591524 0.0 0.460285 -0.591775 0.0 0.460863 -0.592023 0.0 0.461442 -0.592267 0.0 0.462022 -0.592508 0.0 0.462604 -0.592745 0.0 0.463188 -0.592978 0.0 0.463772 -0.593207 0.0 0.464359 -0.593433 0.0 0.464947 -0.593655 0.0 0.465536 -0.593873 0.0 0.466126 -0.594088 0.0 0.466718 -0.594299 0.0 0.467311 -0.594506 0.0 0.467906 -0.59471 0.0 0.468501 -0.59491 0.0 0.469098 -0.595106 0.0 0.469696 -0.595298 0.0 0.470296 -0.595486 0.0 0.470896 -0.595671 0.0 0.471498 -0.595852 0.0 0.472101 -0.596029 0.0 0.472705 -0.596203 0.0 0.47331 -0.596372 0.0 0.473916 -0.596538 0.0 0.474523 -0.5967 0.0 0.475131 -0.596858 0.0 0.47574 -0.597013 0.0 0.47635 -0.597163 0.0 0.476961 -0.59731 0.0 0.477573 -0.597453 0.0 0.478186 -0.597592 0.0 0.478799 -0.597727 0.0 0.479414 -0.597858 0.0 0.480029 -0.597986 0.0 0.480645 -0.598109 0.0 0.481262 -0.598229 0.0 0.481879 -0.598345 0.0 0.482498 -0.598456 0.0 0.483117 -0.598564 0.0 0.483736 -0.598669 0.0 0.484357 -0.598769 0.0 0.484977 -0.598865 0.0 0.485599 -0.598958 0.0 0.486221 -0.599046 0.0 0.486844 -0.599131 0.0 0.487467 -0.599211 0.0 0.48809 -0.599288 0.0 0.488714 -0.599361 0.0 0.489339 -0.59943 0.0 0.489964 -0.599495 0.0 0.490589 -0.599556 0.0 0.491215 -0.599613 0.0 0.491841 -0.599667 0.0 0.492467 -0.599716 0.0 0.493094 -0.599761 0.0 0.493721 -0.599803 0.0 0.494348 -0.59984 0.0 0.494976 -0.599874 0.0 0.495603 -0.599903 0.0 0.496231 -0.599929 0.0 0.496859 -0.599951 0.0 0.497487 -0.599968 0.0 0.498115 -0.599982 0.0 0.498743 -0.599992 0.0 0.499372 -0.599998 0.0 0.5 -0.6 0.0 0.500628 -0.599998 0.0 0.501257 -0.599992 0.0 0.501885 -0.599982 0.0 0.502513 -0.599968 0.0 0.503141 -0.599951 0.0 0.503769 -0.599929 0.0 0.504397 -0.599903 0.0 0.505024 -0.599874 0.0 0.505652 -0.59984 0.0 0.506279 -0.599803 0.0 0.506906 -0.599761 0.0 0.507533 -0.599716 0.0 0.508159 -0.599667 0.0 0.508785 -0.599613 0.0 0.509411 -0.599556 0.0 0.510036 -0.599495 0.0 0.510661 -0.59943 0.0 0.511286 -0.599361 0.0 0.51191 -0.599288 0.0 0.512533 -0.599211 0.0 0.513156 -0.599131 0.0 0.513779 -0.599046 0.0 0.514401 -0.598958 0.0 0.515023 -0.598865 0.0 0.515643 -0.598769 0.0 0.516264 -0.598669 0.0 0.516883 -0.598564 0.0 0.517502 -0.598456 0.0 0.518121 -0.598345 0.0 0.518738 -0.598229 0.0 0.519355 -0.598109 0.0 0.519971 -0.597986 0.0 0.520586 -0.597858 0.0 0.521201 -0.597727 0.0 0.521814 -0.597592 0.0 0.522427 -0.597453 0.0 0.523039 -0.59731 0.0 0.52365 -0.597163 0.0 0.52426 -0.597013 0.0 0.524869 -0.596858 0.0 0.525477 -0.5967 0.0 0.526084 -0.596538 0.0 0.52669 -0.596372 0.0 0.527295 -0.596203 0.0 0.527899 -0.596029 0.0 0.528502 -0.595852 0.0 0.529104 -0.595671 0.0 0.529704 -0.595486 0.0 0.530304 -0.595298 0.0 0.530902 -0.595106 0.0 0.531499 -0.59491 0.0 0.532094 -0.59471 0.0 0.532689 -0.594506 0.0 0.533282 -0.594299 0.0 0.533874 -0.594088 0.0 0.534464 -0.593873 0.0 0.535053 -0.593655 0.0 0.535641 -0.593433 0.0 0.536228 -0.593207 0.0 0.536812 -0.592978 0.0 0.537396 -0.592745 0.0 0.537978 -0.592508 0.0 0.538558 -0.592267 0.0 0.539137 -0.592023 0.0 0.539715 -0.591775 0.0 0.540291 -0.591524 0.0 0.540865 -0.591269 0.0 0.541438 -0.591011 0.0 0.542009 -0.590748 0.0 0.542578 -0.590483 0.0 0.543146 -0.590213 0.0 0.543712 -0.589941 0.0 0.544276 -0.589664 0.0 0.544838 -0.589384 0.0 0.545399 -0.589101 0.0 0.545958 -0.588814 0.0 0.546515 -0.588523 0.0 0.54707 -0.588229 0.0 0.547624 -0.587932 0.0 0.548175 -0.587631 0.0 0.548725 -0.587326 0.0 0.549273 -0.587018 0.0 0.549819 -0.586707 0.0 0.550362 -0.586392 0.0 0.550904 -0.586074 0.0 0.551444 -0.585753 0.0 0.551982 -0.585428 0.0 0.552517 -0.585099 0.0 0.553051 -0.584768 0.0 0.553583 -0.584433 0.0 0.554112 -0.584094 0.0 0.554639 -0.583753 0.0 0.555165 -0.583408 0.0 0.555688 -0.58306 0.0 0.556208 -0.582708 0.0 0.556727 -0.582353 0.0 0.557243 -0.581995 0.0 0.557757 -0.581634 0.0 0.558269 -0.581269 0.0 0.558779 -0.580902 0.0 0.559286 -0.580531 0.0 0.55979 -0.580157 0.0 0.560293 -0.579779 0.0 0.560793 -0.579399 0.0 0.561291 -0.579016 0.0 0.561786 -0.578629 0.0 0.562279 -0.578239 0.0 0.562769 -0.577846 0.0 0.563257 -0.57745 0.0 0.563742 -0.577051 0.0 0.564225 -0.576649 0.0 0.564706 -0.576244 0.0 0.565183 -0.575836 0.0 0.565659 -0.575425 0.0 0.566131 -0.575011 0.0 0.566601 -0.574594 0.0 0.567069 -0.574174 0.0 0.567533 -0.573751 0.0 0.567995 -0.573326 0.0 0.568455 -0.572897 0.0 0.568911 -0.572465 0.0 0.569365 -0.572031 0.0 0.569817 -0.571594 0.0 0.570265 -0.571154 0.0 0.570711 -0.570711 0.0 0.571154 -0.570265 0.0 0.571594 -0.569817 0.0 0.572031 -0.569365 0.0 0.572465 -0.568911 0.0 0.572897 -0.568455 0.0 0.573326 -0.567995 0.0 0.573751 -0.567533 0.0 0.574174 -0.567069 0.0 0.574594 -0.566601 0.0 0.575011 -0.566131 0.0 0.575425 -0.565659 0.0 0.575836 -0.565183 0.0 0.576244 -0.564706 0.0 0.576649 -0.564225 0.0 0.577051 -0.563742 0.0 0.57745 -0.563257 0.0 0.577846 -0.562769 0.0 0.578239 -0.562279 0.0 0.578629 -0.561786 0.0 0.579016 -0.561291 0.0 0.579399 -0.560793 0.0 0.579779 -0.560293 0.0 0.580157 -0.55979 0.0 0.580531 -0.559286 0.0 0.580902 -0.558779 0.0 0.581269 -0.558269 0.0 0.581634 -0.557757 0.0 0.581995 -0.557243 0.0 0.582353 -0.556727 0.0 0.582708 -0.556208 0.0 0.58306 -0.555688 0.0 0.583408 -0.555165 0.0 0.583753 -0.554639 0.0 0.584094 -0.554112 0.0 0.584433 -0.553583 0.0 0.584768 -0.553051 0.0 0.585099 -0.552517 0.0 0.585428 -0.551982 0.0 0.585753 -0.551444 0.0 0.586074 -0.550904 0.0 0.586392 -0.550362 0.0 0.586707 -0.549819 0.0 0.587018 -0.549273 0.0 0.587326 -0.548725 0.0 0.587631 -0.548175 0.0 0.587932 -0.547624 0.0 0.588229 -0.54707 0.0 0.588523 -0.546515 0.0 0.588814 -0.545958 0.0 0.589101 -0.545399 0.0 0.589384 -0.544838 0.0 0.589664 -0.544276 0.0 0.589941 -0.543712 0.0 0.590213 -0.543146 0.0 0.590483 -0.542578 0.0 0.590748 -0.542009 0.0 0.591011 -0.541438 0.0 0.591269 -0.540865 0.0 0.591524 -0.540291 0.0 0.591775 -0.539715 0.0 0.592023 -0.539137 0.0 0.592267 -0.538558 0.0 0.592508 -0.537978 0.0 0.592745 -0.537396 0.0 0.592978 -0.536812 0.0 0.593207 -0.536228 0.0 0.593433 -0.535641 0.0 0.593655 -0.535053 0.0 0.593873 -0.534464 0.0 0.594088 -0.533874 0.0 0.594299 -0.533282 0.0 0.594506 -0.532689 0.0 0.59471 -0.532094 0.0 0.59491 -0.531499 0.0 0.595106 -0.530902 0.0 0.595298 -0.530304 0.0 0.595486 -0.529704 0.0 0.595671 -0.529104 0.0 0.595852 -0.528502 0.0 0.596029 -0.527899 0.0 0.596203 -0.527295 0.0 0.596372 -0.52669 0.0 0.596538 -0.526084 0.0 0.5967 -0.525477 0.0 0.596858 -0.524869 0.0 0.597013 -0.52426 0.0 0.597163 -0.52365 0.0 0.59731 -0.523039 0.0 0.597453 -0.522427 0.0 0.597592 -0.521814 0.0 0.597727 -0.521201 0.0 0.597858 -0.520586 0.0 0.597986 -0.519971 0.0 0.598109 -0.519355 0.0 0.598229 -0.518738 0.0 0.598345 -0.518121 0.0 0.598456 -0.517502 0.0 0.598564 -0.516883 0.0 0.598669 -0.516264 0.0 0.598769 -0.515643 0.0 0.598865 -0.515023 0.0 0.598958 -0.514401 0.0 0.599046 -0.513779 0.0 0.599131 -0.513156 0.0 0.599211 -0.512533 0.0 0.599288 -0.51191 0.0 0.599361 -0.511286 0.0 0.59943 -0.510661 0.0 0.599495 -0.510036 0.0 0.599556 -0.509411 0.0 0.599613 -0.508785 0.0 0.599667 -0.508159 0.0 0.599716 -0.507533 0.0 0.599761 -0.506906 0.0 0.599803 -0.506279 0.0 0.59984 -0.505652 0.0 0.599874 -0.505024 0.0 0.599903 -0.504397 0.0 0.599929 -0.503769 0.0 0.599951 -0.503141 0.0 0.599968 -0.502513 0.0 0.599982 -0.501885 0.0 0.599992 -0.501257 0.0 0.599998 -0.500628 0.0 
        </DataArray>
      </Points>
      <Polys>
        <DataArray type="Int64" Name="connectivity" format="ascii">
0 1 1 2 2 3 3 4 4 5 5 6 6 7 7 8 8 9 9 10 10 11 11 12 12 13 13 14 14 15 15 16 16 17 17 18 18 19 19 20 20 21 21 22 22 23 23 24 24 25 25 26 26 27 27 28 28 29 29 30 30 31 31 32 32 33 33 34 34 35 35 36 36 37 37 38 38 39 39 40 40 41 41 42 42 43 43 44 44 45 45 46 46 47 47 48 48 49 49 50 50 51 51 52 52 53 53 54 54 55 55 56 56 57 57 58 58 59 59 60 60 61 61 62 62 63 63 64 64 65 65 66 66 67 67 68 68 69 69 70 70 71 71 72 72 73 73 74 74 75 75 76 76 77 77 78 78 79 79 80 80 81 81 82 82 83 83 84 84 85 85 86 86 87 87 88 88 89 89 90 90 91 91 92 92 93 93 94 94 95 95 96 96 97 97 98 98 99 99 100 100 101 101 102 102 103 103 104 104 105 105 106 106 107 107 108 108 109 109 110 110 111 111 112 112 113 113 114 114 115 115 116 116 117 117 118 118 119 119 120 120 121 121 122 122 123 123 124 124 125 125 126 126 127 127 128 128 129 129 130 130 131 131 132 132 133 133 134 134 135 135 136 136 137 137 138 138 139 139 140 140 141 141 142 142 143 143 144 144 145 145 146 146 147 147 148 148 149 149 150 150 151 151 152 152 153 153 154 154 155 155 156 156 157 157 158 158 159 159 160 160 161 161 162 162 163 163 164 164 165 165 166 166 167 167 168 168 169 169 170 170 171 171 172 172 173 173 174 174 175 175 176 176 177 177 178 178 179 179 180 180 181 181 182 182 183 183 184 184 185 185 186 186 187 187 188 188 189 189 190 190 191 191 192 192 193 193 194 194 195 195 196 196 197 197 198 198 199 199 200 200 201 201 202 202 203 203 204 204 205 205 206 206 207 207 208 208 209 209 210 210 211 211 212 212 213 213 214 214 215 215 216 216 217 217 218 218 219 219 220 220 221 221 222 222 223 223 224 224 225 225 226 226 227 227 228 228 229 229 230 230 231 231 232 232 233 233 234 234 235 235 236 236 237 237 238 238 239 239 240 240 241 241 242 242 243 243 244 244 245 245 246 246 247 247 248 248 249 249 250 250 251 251 252 252 253 253 254 254 255 255 256 256 257 257 258 258 259 259 260 260 261 261 262 262 263 263 264 264 265 265 266 266 267 267 268 268 269 269 270 270 271 271 272 272 273 273 274 274 275 275 276 276 277 277 278 278 279 279 280 280 281 281 282 282 283 283 284 284 285 285 286 286 287 287 288 288 289 289 290 290 291 291 292 292 293 293 294 294 295 295 296 296 297 297 298 298 299 299 300 300 301 301 302 302 303 303 304 304 305 305 306 306 307 307 308 308 309 309 310 310 311 311 312 312 313 313 314 314 315 315 316 316 317 317 318 318 319 319 320 320 321 321 322 322 323 323 324 324 325 325 326 326 327 327 328 328 329 329 330 330 331 331 332 332 333 333 334 334 335 335 336 336 337 337 338 338 339 339 340 340 341 341 342 342 343 343 344 344 345 345 346 346 347 347 348 348 349 349 350 350 351 351 352 352 353 353 354 354 355 355 356 356 357 357 358 358 359 359 360 360 361 361 362 362 363 363 364 364 365 365 366 366 367 367 368 368 369 369 370 370 371 371 372 372 373 373 374 374 375 375 376 376 377 377 378 378 379 379 380 380 381 381 382 382 383 383 384 384 385 385 386 386 387 387 388 388 389 389 390 390 391 391 392 392 393 393 394 394 395 395 396 396 397 397 398 398 399 399 400 400 401 401 402 402 403 403 404 404 405 405 406 406 407 407 408 408 409 409 410 410 411 411 412 412 413 413 414 414 415 415 416 416 417 417 418 418 419 419 420 420 421 421 422 422 423 423 424 424 425 425 426 426 427 427 428 428 429 429 430 430 431 431 432 432 433 433 434 434 435 435 436 436 437 437 438 438 439 439 440 440 441 441 442 442 443 443 444 444 445 445 446 446 447 447 448 448 449 449 450 450 451 451 452 452 453 453 454 454 455 455 456 456 457 457 458 458 459 459 460 460 461 461 462 462 463 463 464 464 465 465 466 466 467 467 468 468 469 469 470 470 471 471 472 472 473 473 474 474 475 475 476 476 477 477 478 478 479 479 480 480 481 481 482 482 483 483 484 484 485 485 486 486 487 487 488 488 489 489 490 490 491 491 492 492 493 493 494 494 495 495 496 496 497 497 498 498 499 499 500 500 501 501 502 502 503 503 504 504 505 505 506 506 507 507 508 508 509 509 510 510 511 511 512 512 513 513 514 514 515 515 516 516 517 517 518 518 519 519 520 520 521 521 522 522 523 523 524 524 525 525 526 526 527 527 528 528 529 529 530 530 531 531 532 532 533 533 534 534 535 535 536 536 537 537 538 538 539 539 540 540 541 541 542 542 543 543 544 544 545 545 546 546 547 547 548 548 549 549 550 550 551 551 552 552 553 553 554 554 555 555 556 556 557 557 558 558 559 559 560 560 561 561 562 562 563 563 564 564 565 565 566 566 567 567 568 568 569 569 570 570 571 571 572 572 573 573 574 574 575 575 576 576 577 577 578 578 579 579 580 580 581 581 582 582 583 583 584 584 585 585 586 586 587 587 588 588 589 589 590 590 591 591 592 592 593 593 594 594 595 595 596 596 597 597 598 598 599 599 600 600 601 601 602 602 603 603 604 604 605 605 606 606 607 607 608 608 609 609 610 610 611 611 612 612 613 613 614 614 615 615 616 616 617 617 618 618 619 619 620 620 621 621 622 622 623 623 624 624 625 625 626 626 627 627 628 628 629 629 630 630 631 631 632 632 633 633 634 634 635 635 636 636 637 637 638 638 639 639 640 640 641 641 642 642 643 643 644 644 645 645 646 646 647 647 648 648 649 649 650 650 651 651 652 652 653 653 654 654 655 655 656 656 657 657 658 658 659 659 660 660 661 661 662 662 663 663 664 664 665 665 666 666 667 667 668 668 669 669 670 670 671 671 672 672 673 673 674 674 675 675 676 676 677 677 678 678 679 679 680 680 681 681 682 682 683 683 684 684 685 685 686 686 687 687 688 688 689 689 690 690 691 691 692 692 693 693 694 694 695 695 696 696 697 697 698 698 699 699 700 700 701 701 702 702 703 703 704 704 705 705 706 706 707 707 708 708 709 709 710 710 711 711 712 712 713 713 714 714 715 715 716 716 717 717 718 718 719 719 720 720 721 721 722 722 723 723 724 724 725 725 726 726 727 727 728 728 729 729 730 730 731 731 732 732 733 733 734 734 735 735 736 736 737 737 738 738 739 739 740 740 741 741 742 742 743 743 744 744 745 745 746 746 747 747 748 748 749 749 750 750 751 751 752 752 753 753 754 754 755 755 756 756 757 757 758 758 759 759 760 760 761 761 762 762 763 763 764 764 765 765 766 766 767 767 768 768 769 769 770 770 771 771 772 772 773 773 774 774 775 775 776 776 777 777 778 778 779 779 780 780 781 781 782 782 783 783 784 784 785 785 786 786 787 787 788 788 789 789 790 790 791 791 792 792 793 793 794 794 795 795 796 796 797 797 798 798 799 799 800 800 801 801 802 802 803 803 804 804 805 805 806 806 807 807 808 808 809 809 810 810 811 811 812 812 813 813 814 814 815 815 816 816 817 817 818 818 819 819 820 820 821 821 822 822 823 823 824 824 825 825 826 826 827 827 828 828 829 829 830 830 831 831 832 832 833 833 834 834 835 835 836 836 837 837 838 838 839 839 840 840 841 841 842 842 843 843 844 844 845 845 846 846 847 847 848 848 849 849 850 850 851 851 852 852 853 853 854 854 855 855 856 856 857 857 858 858 859 859 860 860 861 861 862 862 863 863 864 864 865 865 866 866 867 867 868 868 869 869 870 870 871 871 872 872 873 873 874 874 875 875 876 876 877 877 878 878 879 879 880 880 881 881 882 882 883 883 884 884 885 885 886 886 887 887 888 888 889 889 890 890 891 891 892 892 893 893 894 894 895 895 896 896 897 897 898 898 899 899 900 900 901 901 902 902 903 903 904 904 905 905 906 906 907 907 908 908 909 909 910 910 911 911 912 912 913 913 914 914 915 915 916 916 917 917 918 918 919 919 920 920 921 921 922 922 923 923 924 924 925 925 926 926 927 927 928 928 929 929 930 930 931 931 932 932 933 933 934 934 935 935 936 936 937 937 938 938 939 939 940 940 941 941 942 942 943 943 944 944 945 945 946 946 947 947 948 948 949 949 950 950 951 951 952 952 953 953 954 954 955 955 956 956 957 957 958 958 959 959 960 960 961 961 962 962 963 963 964 964 965 965 966 966 967 967 968 968 969 969 970 970 971 971 972 972 973 973 974 974 975 975 976 976 977 977 978 978 979 979 980 980 981 981 982 982 983 983 984 984 985 985 986 986 987 987 988 988 989 989 990 990 991 991 992 992 993 993 994 994 995 995 996 996 997 997 998 998 999 999 0 
        </DataArray>
        <DataArray type="Int64" Name="offsets" format="ascii">
2 4 6 8 10 12 14 16 18 20 22 24 26 28 30 32 34 36 38 40 42 44 46 48 50 52 54 56 58 60 62 64 66 68 70 72 74 76 78 80 82 84 86 88 90 92 94 96 98 100 102 104 106 108 110 112 114 116 118 120 122 124 126 128 130 132 134 136 138 140 142 144 146 148 150 152 154 156 158 160 162 164 166 168 170 172 174 176 178 180 182 184 186 188 190 192 194 196 198 200 202 204 206 208 210 212 214 216 218 220 222 224 226 228 230 232 234 236 238 240 242 244 246 248 250 252 254 256 258 260 262 264 266 268 270 272 274 276 278 280 282 284 286 288 290 292 294 296 298 300 302 304 306 308 310 312 314 316 318 320 322 324 326 328 330 332 334 336 338 340 342 344 346 348 350 352 354 356 358 360 362 364 366 368 370 372 374 376 378 380 382 384 386 388 390 392 394 396 398 400 402 404 406 408 410 412 414 416 418 420 422 424 426 428 430 432 434 436 438 440 442 444 446 448 450 452 454 456 458 460 462 464 466 468 470 472 474 476 478 480 482 484 486 488 490 492 494 496 498 500 502 504 506 508 510 512 514 516 518 520 522 524 526 528 530 532 534 536 538 540 542 544 546 548 550 552 554 556 558 560 562 564 566 568 570 572 574 576 578 580 582 584 586 588 590 592 594 596 598 600 602 604 606 608 610 612 614 616 618 620 622 624 626 628 630 632 634 636 638 640 642 644 646 648 650 652 654 656 658 660 662 664 666 668 670 672 674 676 678 680 682 684 686 688 690 692 694 696 698 700 702 704 706 708 710 712 714 716 718 720 722 724 726 728 730 732 734 736 738 740 742 744 746 748 750 752 754 756 758 760 762 764 766 768 770 772 774 776 778 780 782 784 786 788 790 792 794 796 798 800 802 804 806 808 810 812 814 816 818 820 822 824 826 828 830 832 834 836 838 840 842 844 846 848 850 852 854 856 858 860 862 864 866 868 870 872 874 876 878 880 882 884 886 888 890 892 894 896 898 900 902 904 906 908 910 912 914 916 918 920 922 924 926 928 930 932 934 936 938 940 942 944 946 948 950 952 954 956 958 960 962 964 966 968 970 972 974 976 978 980 982 984 986 988 990 992 994 996 998 1000 1002 1004 1006 1008 1010 1012 1014 1016 1018 1020 1022 1024 1026 1028 1030 1032 1034 1036 1038 1040 1042 1044 1046 1048 1050 1052 1054 1056 1058 1060 1062 1064 1066 1068 1070 1072 1074 1076 1078 1080 1082 1084 1086 1088 1090 1092 1094 1096 1098 1100 1102 1104 1106 1108 1110 1112 1114 1116 1118 1120 1122 1124 1126 1128 1130 1132 1134 1136 1138 1140 1142 1144 1146 1148 1150 1152 1154 1156 1158 1160 1162 1164 1166 1168 1170 1172 1174 1176 1178 1180 1182 1184 1186 1188 1190 1192 1194 1196 1198 1200 1202 1204 1206 1208 1210 1212 1214 1216 1218 1220 1222 1224 1226 1228 1230 1232 1234 1236 1238 1240 1242 1244 1246 1248 1250 1252 1254 1256 1258 1260 1262 1264 1266 1268 1270 1272 1274 1276 1278 1280 1282 1284 1286 1288 1290 1292 1294 1296 1298 1300 1302 1304 1306 1308 1310 1312 1314 1316 1318 1320 1322 1324 1326 1328 1330 1332 1334 1336 1338 1340 1342 1344 1346 1348 1350 1352 1354 1356 1358 1360 1362 1364 1366 1368 1370 1372 1374 1376 1378 1380 1382 1384 1386 1388 1390 1392 1394 1396 1398 1400 1402 1404 1406 1408 1410 1412 1414 1416 1418 1420 1422 1424 1426 1428 1430 1432 1434 1436 1438 1440 1442 1444 1446 1448 1450 1452 1454 1456 1458 1460 1462 1464 1466 1468 1470 1472 1474 1476 1478 1480 1482 1484 1486 1488 1490 1492 1494 1496 1498 1500 1502 1504 1506 1508 1510 1512 1514 1516 1518 1520 1522 1524 1526 1528 1530 1532 1534 1536 1538 1540 1542 1544 1546 1548 1550 1552 1554 1556 1558 1560 1562 1564 1566 1568 1570 1572 1574 1576 1578 1580 1582 1584 1586 1588 1590 1592 1594 1596 1598 1600 1602 1604 1606 1608 1610 1612 1614 1616 1618 1620 1622 1624 1626 1628 1630 1632 1634 1636 1638 1640 1642 1644 1646 1648 1650 1652 1654 1656 1658 1660 1662 1664 1666 1668 1670 1672 1674 1676 1678 1680 1682 1684 1686 1688 1690 1692 1694 1696 1698 1700 1702 1704 1706 1708 1710 1712 1714 1716 1718 1720 1722 1724 1726 1728 1730 1732 1734 1736 1738 1740 1742 1744 1746 1748 1750 1752 1754 1756 1758 1760 1762 1764 1766 1768 1770 1772 1774 1776 1778 1780 1782 1784 1786 1788 1790 1792 1794 1796 1798 1800 1802 1804 1806 1808 1810 1812 1814 1816 1818 1820 1822 1824 1826 1828 1830 1832 1834 1836 1838 1840 1842 1844 1846 1848 1850 1852 1854 1856 1858 1860 1862 1864 1866 1868 1870 1872 1874 1876 1878 1880 1882 1884 1886 1888 1890 1892 1894 1896 1898 1900 1902 1904 1906 1908 1910 1912 1914 1916 1918 1920 1922 1924 1926 1928 1930 1932 1934 1936 1938 1940 1942 1944 1946 1948 1950 1952 1954 1956 1958 1960 1962 1964 1966 1968 1970 1972 1974 1976 1978 1980 1982 1984 1986 1988 1990 1992 1994 1996 1998 2000 
        </DataArray>
      </Polys>
      <CellData Scalars="Pressure">
        <DataArray type="Float64" Name="Pressure" format="ascii">
0 0 0 0 0 0 0 0 0 0 0 0 0 0 0 0 0 0 0 0 0 0 0 0 0 0 0 0 0 0 0 0 0 0 0 0 0 0 0 0 0 0 0 0 0 0 0 0 0 0 0 0 0 0 0 0 0 0 0 0 0 0 0 0 0 0 0 0 0 0 0 0 0 0 0 0 0 0 0 0 0 0 0 0 0 0 0 0 0 0 0 0 0 0 0 0 0 0 0 0 0 0 0 0 0 0 0 0 0 0 0 0 0 0 0 0 0 0 0 0 0 0 0 0 0 0 0 0 0 0 0 0 0 0 0 0 0 0 0 0 0 0 0 0 0 0 0 0 0 0 0 0 0 0 0 0 0 0 0 0 0 0 0 0 0 0 0 0 0 0 0 0 0 0 0 0 0 0 0 0 0 0 0 0 0 0 0 0 0 0 0 0 0 0 0 0 0 0 0 0 0 0 0 0 0 0 0 0 0 0 0 0 0 0 0 0 0 0 0 0 0 0 0 0 0 0 0 0 0 0 0 0 0 0 0 0 0 0 0 0 0 0 0 0 0 0 0 0 0 0 0 0 0 0 0 0 0 0 0 0 0 0 0 0 0 0 0 0 0 0 0 0 0 0 0 0 0 0 0 0 0 0 0 0 0 0 0 0 0 0 0 0 0 0 0 0 0 0 0 0 0 0 0 0 0 0 0 0 0 0 0 0 0 0 0 0 0 0 0 0 0 0 0 0 0 0 0 0 0 0 0 0 0 0 0 0 0 0 0 0 0 0 0 0 0 0 0 0 0 0 0 0 0 0 0 0 0 0 0 0 0 0 0 0 0 0 0 0 0 0 0 0 0 0 0 0 0 0 0 0 0 0 0 0 0 0 0 0 0 0 0 0 0 0 0 0 0 0 0 0 0 0 0 0 0 0 0 0 0 0 0 0 0 0 0 0 0 0 0 0 0 0 0 0 0 0 0 0 0 0 0 0 0 0 0 0 0 0 0 0 0 0 0 0 0 0 0 0 0 0 0 0 0 0 0 0 0 0 0 0 0 0 0 0 0 0 0 0 0 0 0 0 0 0 0 0 0 0 0 0 0 0 0 0 0 0 0 0 0 0 0 0 0 0 0 0 0 0 0 0 0 0 0 0 0 0 0 0 0 0 0 0 0 0 0 0 0 0 0 0 0 0 0 0 0 0 0 0 0 0 0 0 0 0 0 0 0 0 0 0 0 0 0 0 0 0 0 0 0 0 0 0 0 0 0 0 0 0 0 0 0 0 0 0 0 0 0 0 0 0 0 0 0 0 0 0 0 0 0 0 0 0 0 0 0 0 0 0 0 0 0 0 0 0 0 0 0 0 0 0 0 0 0 0 0 0 0 0 0 0 0 0 0 0 0 0 0 0 0 0 0 0 0 0 0 0 0 0 0 0 0 0 0 0 0 0 0 0 0 0 0 0 0 0 0 0 0 0 0 0 0 0 0 0 0 0 0 0 0 0 0 0 0 0 0 0 0 0 0 0 0 0 0 0 0 0 0 0 0 0 0 0 0 0 0 0 0 0 0 0 0 0 0 0 0 0 0 0 0 0 0 0 0 0 0 0 0 0 0 0 0 0 0 0 0 0 0 0 0 0 0 0 0 0 0 0 0 0 0 0 0 0 0 0 0 0 0 0 0 0 0 0 0 0 0 0 0 0 0 0 0 0 0 0 0 0 0 0 0 0 0 0 0 0 0 0 0 0 0 0 0 0 0 0 0 0 0 0 0 0 0 0 0 0 0 0 0 0 0 0 0 0 0 0 0 0 0 0 0 0 0 0 0 0 0 0 0 0 0 0 0 0 0 0 0 0 0 0 0 0 0 0 0 0 0 0 0 0 0 0 0 0 0 0 0 0 0 0 0 0 0 0 0 0 0 0 0 0 0 0 0 0 0 0 0 0 0 0 0 0 0 0 0 0 0 0 0 0 0 0 0 0 0 0 0 0 0 0 0 0 0 0 0 0 0 0 0 0 0 0 0 0 0 0 0 0 0 0 0 0 0 0 0 0 0 0 0 0 0 0 0 0 0 0 0 0 0 0 0 0 0 0 0 0 0 0 0 0 0 0 0 0 0 0 0 0 0 0 0 0 0 0 0 0 0 0 0 0 0 0 0 0 0 0 0 0 0 0 0 0 0 0 0 0 0 0 0 0 0 0 0 0 0 0 0 0 0 0 0 0 0 0 0 0 0 0 0 0 0 0 0 0 0 0 0 0 0 0 0 0 
        </DataArray>
        <DataArray type="Float64" Name="Temperature" format="ascii">
0 0 0 0 0 0 0 0 0 0 0 0 0 0 0 0 0 0 0 0 0 0 0 0 0 0 0 0 0 0 0 0 0 0 0 0 0 0 0 0 0 0 0 0 0 0 0 0 0 0 0 0 0 0 0 0 0 0 0 0 0 0 0 0 0 0 0 0 0 0 0 0 0 0 0 0 0 0 0 0 0 0 0 0 0 0 0 0 0 0 0 0 0 0 0 0 0 0 0 0 0 0 0 0 0 0 0 0 0 0 0 0 0 0 0 0 0 0 0 0 0 0 0 0 0 0 0 0 0 0 0 0 0 0 0 0 0 0 0 0 0 0 0 0 0 0 0 0 0 0 0 0 0 0 0 0 0 0 0 0 0 0 0 0 0 0 0 0 0 0 0 0 0 0 0 0 0 0 0 0 0 0 0 0 0 0 0 0 0 0 0 0 0 0 0 0 0 0 0 0 0 0 0 0 0 0 0 0 0 0 0 0 0 0 0 0 0 0 0 0 0 0 0 0 0 0 0 0 0 0 0 0 0 0 0 0 0 0 0 0 0 0 0 0 0 0 0 0 0 0 0 0 0 0 0 0 0 0 0 0 0 0 0 0 0 0 0 0 0 0 0 0 0 0 0 0 0 0 0 0 0 0 0 0 0 0 0 0 0 0 0 0 0 0 0 0 0 0 0 0 0 0 0 0 0 0 0 0 0 0 0 0 0 0 0 0 0 0 0 0 0 0 0 0 0 0 0 0 0 0 0 0 0 0 0 0 0 0 0 0 0 0 0 0 0 0 0 0 0 0 0 0 0 0 0 0 0 0 0 0 0 0 0 0 0 0 0 0 0 0 0 0 0 0 0 0 0 0 0 0 0 0 0 0 0 0 0 0 0 0 0 0 0 0 0 0 0 0 0 0 0 0 0 0 0 0 0 0 0 0 0 0 0 0 0 0 0 0 0 0 0 0 0 0 0 0 0 0 0 0 0 0 0 0 0 0 0 0 0 0 0 0 0 0 0 0 0 0 0 0 0 0 0 0 0 0 0 0 0 0 0 0 0 0 0 0 0 0 0 0 0 0 0 0 0 0 0 0 0 0 0 0 0 0 0 0 0 0 0 0 0 0 0 0 0 0 0 0 0 0 0 0 0 0 0 0 0 0 0 0 0 0 0 0 0 0 0 0 0 0 0 0 0 0 0 0 0 0 0 0 0 0 0 0 0 0 0 0 0 0 0 0 0 0 0 0 0 0 0 0 0 0 0 0 0 0 0 0 0 0 0 0 0 0 0 0 0 0 0 0 0 0 0 0 0 0 0 0 0 0 0 0 0 0 0 0 0 0 0 0 0 0 0 0 0 0 0 0 0 0 0 0 0 0 0 0 0 0 0 0 0 0 0 0 0 0 0 0 0 0 0 0 0 0 0 0 0 0 0 0 0 0 0 0 0 0 0 0 0 0 0 0 0 0 0 0 0 0 0 0 0 0 0 0 0 0 0 0 0 0 0 0 0 0 0 0 0 0 0 0 0 0 0 0 0 0 0 0 0 0 0 0 0 0 0 0 0 0 0 0 0 0 0 0 0 0 0 0 0 0 0 0 0 0 0 0 0 0 0 0 0 0 0 0 0 0 0 0 0 0 0 0 0 0 0 0 0 0 0 0 0 0 0 0 0 0 0 0 0 0 0 0 0 0 0 0 0 0 0 0 0 0 0 0 0 0 0 0 0 0 0 0 0 0 0 0 0 0 0 0 0 0 0 0 0 0 0 0 0 0 0 0 0 0 0 0 0 0 0 0 0 0 0 0 0 0 0 0 0 0 0 0 0 0 0 0 0 0 0 0 0 0 0 0 0 0 0 0 0 0 0 0 0 0 0 0 0 0 0 0 0 0 0 0 0 0 0 0 0 0 0 0 0 0 0 0 0 0 0 0 0 0 0 0 0 0 0 0 0 0 0 0 0 0 0 0 0 0 0 0 0 0 0 0 0 0 0 0 0 0 0 0 0 0 0 0 0 0 0 0 0 0 0 0 0 0 0 0 0 0 0 0 0 0 0 0 0 0 0 0 0 0 0 0 0 0 0 0 0 0 0 0 0 0 0 0 0 0 0 0 0 0 0 0 0 0 0 0 0 0 0 0 0 0 0 0 0 0 0 0 0 0 0 0 0 0 0 0 0 0 0 0 0 0 0 0 0 0 0 0 0 0 0 0 0 0 0 0 0 0 0 0 0 0 0 0 0 0 0 0 0 0 0 0 0 0 0 0 0 0 
        </DataArray>
        <DataArray type="Float64" Name="Tau1" format="ascii">
0 0 0 0 0 0 0 0 0 0 0 0 0 0 0 0 0 0 0 0 0 0 0 0 0 0 0 0 0 0 0 0 0 0 0 0 0 0 0 0 0 0 0 0 0 0 0 0 0 0 0 0 0 0 0 0 0 0 0 0 0 0 0 0 0 0 0 0 0 0 0 0 0 0 0 0 0 0 0 0 0 0 0 0 0 0 0 0 0 0 0 0 0 0 0 0 0 0 0 0 0 0 0 0 0 0 0 0 0 0 0 0 0 0 0 0 0 0 0 0 0 0 0 0 0 0 0 0 0 0 0 0 0 0 0 0 0 0 0 0 0 0 0 0 0 0 0 0 0 0 0 0 0 0 0 0 0 0 0 0 0 0 0 0 0 0 0 0 0 0 0 0 0 0 0 0 0 0 0 0 0 0 0 0 0 0 0 0 0 0 0 0 0 0 0 0 0 0 0 0 0 0 0 0 0 0 0 0 0 0 0 0 0 0 0 0 0 0 0 0 0 0 0 0 0 0 0 0 0 0 0 0 0 0 0 0 0 0 0 0 0 0 0 0 0 0 0 0 0 0 0 0 0 0 0 0 0 0 0 0 0 0 0 0 0 0 0 0 0 0 0 0 0 0 0 0 0 0 0 0 0 0 0 0 0 0 0 0 0 0 0 0 0 0 0 0 0 0 0 0 0 0 0 0 0 0 0 0 0 0 0 0 0 0 0 0 0 0 0 0 0 0 0 0 0 0 0 0 0 0 0 0 0 0 0 0 0 0 0 0 0 0 0 0 0 0 0 0 0 0 0 0 0 0 0 0 0 0 0 0 0 0 0 0 0 0 0 0 0 0 0 0 0 0 0 0 0 0 0 0 0 0 0 0 0 0 0 0 0 0 0 0 0 0 0 0 0 0 0 0 0 0 0 0 0 0 0 0 0 0 0 0 0 0 0 0 0 0 0 0 0 0 0 0 0 0 0 0 0 0 0 0 0 0 0 0 0 0 0 0 0 0 0 0 0 0 0 0 0 0 0 0 0 0 0 0 0 0 0 0 0 0 0 0 0 0 0 0 0 0 0 0 0 0 0 0 0 0 0 0 0 0 0 0 0 0 0 0 0 0 0 0 0 0 0 0 0 0 0 0 0 0 0 0 0 0 0 0 0 0 0 0 0 0 0 0 0 0 0 0 0 0 0 0 0 0 0 0 0 0 0 0 0 0 0 0 0 0 0 0 0 0 0 0 0 0 0 0 0 0 0 0 0 0 0 0 0 0 0 0 0 0 0 0 0 0 0 0 0 0 0 0 0 0 0 0 0 0 0 0 0 0 0 0 0 0 0 0 0 0 0 0 0 0 0 0 0 0 0 0 0 0 0 0 0 0 0 0 0 0 0 0 0 0 0 0 0 0 0 0 0 0 0 0 0 0 0 0 0 0 0 0 0 0 0 0 0 0 0 0 0 0 0 0 0 0 0 0 0 0 0 0 0 0 0 0 0 0 0 0 0 0 0 0 0 0 0 0 0 0 0 0 0 0 0 0 0 0 0 0 0 0 0 0 0 0 0 0 0 0 0 0 0 0 0 0 0 0 0 0 0 0 0 0 0 0 0 0 0 0 0 0 0 0 0 0 0 0 0 0 0 0 0 0 0 0 0 0 0 0 0 0 0 0 0 0 0 0 0 0 0 0 0 0 0 0 0 0 0 0 0 0 0 0 0 0 0 0 0 0 0 0 0 0 0 0 0 0 0 0 0 0 0 0 0 0 0 0 0 0 0 0 0 0 0 0 0 0 0 0 0 0 0 0 0 0 0 0 0 0 0 0 0 0 0 0 0 0 0 0 0 0 0 0 0 0 0 0 0 0 0 0 0 0 0 0 0 0 0 0 0 0 0 0 0 0 0 0 0 0 0 0 0 0 0 0 0 0 0 0 0 0 0 0 0 0 0 0 0 0 0 0 0 0 0 0 0 0 0 0 0 0 0 0 0 0 0 0 0 0 0 0 0 0 0 0 0 0 0 0 0 0 0 0 0 0 0 0 0 0 0 0 0 0 0 0 0 0 0 0 0 0 0 0 0 0 0 0 0 0 0 0 0 0 0 0 0 0 0 0 0 0 0 0 0 0 0 0 0 0 0 0 0 0 0 0 0 0 0 0 0 0 0 0 0 0 0 0 0 0 0 0 0 0 0 0 0 0 0 0 0 0 0 0 0 0 0 0 0 0 0 0 0 0 0 0 0 0 0 0 0 0 0 0 0 0 0 0 0 0 
        </DataArray>
        <DataArray type="Float64" Name="Tau2" format="ascii">
0 0 0 0 0 0 0 0 0 0 0 0 0 0 0 0 0 0 0 0 0 0 0 0 0 0 0 0 0 0 0 0 0 0 0 0 0 0 0 0 0 0 0 0 0 0 0 0 0 0 0 0 0 0 0 0 0 0 0 0 0 0 0 0 0 0 0 0 0 0 0 0 0 0 0 0 0 0 0 0 0 0 0 0 0 0 0 0 0 0 0 0 0 0 0 0 0 0 0 0 0 0 0 0 0 0 0 0 0 0 0 0 0 0 0 0 0 0 0 0 0 0 0 0 0 0 0 0 0 0 0 0 0 0 0 0 0 0 0 0 0 0 0 0 0 0 0 0 0 0 0 0 0 0 0 0 0 0 0 0 0 0 0 0 0 0 0 0 0 0 0 0 0 0 0 0 0 0 0 0 0 0 0 0 0 0 0 0 0 0 0 0 0 0 0 0 0 0 0 0 0 0 0 0 0 0 0 0 0 0 0 0 0 0 0 0 0 0 0 0 0 0 0 0 0 0 0 0 0 0 0 0 0 0 0 0 0 0 0 0 0 0 0 0 0 0 0 0 0 0 0 0 0 0 0 0 0 0 0 0 0 0 0 0 0 0 0 0 0 0 0 0 0 0 0 0 0 0 0 0 0 0 0 0 0 0 0 0 0 0 0 0 0 0 0 0 0 0 0 0 0 0 0 0 0 0 0 0 0 0 0 0 0 0 0 0 0 0 0 0 0 0 0 0 0 0 0 0 0 0 0 0 0 0 0 0 0 0 0 0 0 0 0 0 0 0 0 0 0 0 0 0 0 0 0 0 0 0 0 0 0 0 0 0 0 0 0 0 0 0 0 0 0 0 0 0 0 0 0 0 0 0 0 0 0 0 0 0 0 0 0 0 0 0 0 0 0 0 0 0 0 0 0 0 0 0 0 0 0 0 0 0 0 0 0 0 0 0 0 0 0 0 0 0 0 0 0 0 0 0 0 0 0 0 0 0 0 0 0 0 0 0 0 0 0 0 0 0 0 0 0 0 0 0 0 0 0 0 0 0 0 0 0 0 0 0 0 0 0 0 0 0 0 0 0 0 0 0 0 0 0 0 0 0 0 0 0 0 0 0 0 0 0 0 0 0 0 0 0 0 0 0 0 0 0 0 0 0 0 0 0 0 0 0 0 0 0 0 0 0 0 0 0 0 0 0 0 0 0 0 0 0 0 0 0 0 0 0 0 0 0 0 0 0 0 0 0 0 0 0 0 0 0 0 0 0 0 0 0 0 0 0 0 0 0 0 0 0 0 0 0 0 0 0 0 0 0 0 0 0 0 0 0 0 0 0 0 0 0 0 0 0 0 0 0 0 0 0 0 0 0 0 0 0 0 0 0 0 0 0 0 0 0 0 0 0 0 0 0 0 0 0 0 0 0 0 0 0 0 0 0 0 0 0 0 0 0 0 0 0 0 0 0 0 0 0 0 0 0 0 0 0 0 0 0 0 0 0 0 0 0 0 0 0 0 0 0 0 0 0 0 0 0 0 0 0 0 0 0 0 0 0 0 0 0 0 0 0 0 0 0 0 0 0 0 0 0 0 0 0 0 0 0 0 0 0 0 0 0 0 0 0 0 0 0 0 0 0 0 0 0 0 0 0 0 0 0 0 0 0 0 0 0 0 0 0 0 0 0 0 0 0 0 0 0 0 0 0 0 0 0 0 0 0 0 0 0 0 0 0 0 0 0 0 0 0 0 0 0 0 0 0 0 0 0 0 0 0 0 0 0 0 0 0 0 0 0 0 0 0 0 0 0 0 0 0 0 0 0 0 0 0 0 0 0 0 0 0 0 0 0 0 0 0 0 0 0 0 0 0 0 0 0 0 0 0 0 0 0 0 0 0 0 0 0 0 0 0 0 0 0 0 0 0 0 0 0 0 0 0 0 0 0 0 0 0 0 0 0 0 0 0 0 0 0 0 0 0 0 0 0 0 0 0 0 0 0 0 0 0 0 0 0 0 0 0 0 0 0 0 0 0 0 0 0 0 0 0 0 0 0 0 0 0 0 0 0 0 0 0 0 0 0 0 0 0 0 0 0 0 0 0 0 0 0 0 0 0 0 0 0 0 0 0 0 0 0 0 0 0 0 0 0 0 0 0 0 0 0 0 0 0 0 0 0 0 0 0 0 0 0 0 0 0 0 0 0 0 0 0 0 0 0 0 0 0 0 0 0 0 0 0 0 0 0 0 0 0 0 0 0 0 0 0 0 0 0 0 0 0 
        </DataArray>
        <DataArray type="Float64" Name="dTdn" format="ascii">
0 0 0 0 0 0 0 0 0 0 0 0 0 0 0 0 0 0 0 0 0 0 0 0 0 0 0 0 0 0 0 0 0 0 0 0 0 0 0 0 0 0 0 0 0 0 0 0 0 0 0 0 0 0 0 0 0 0 0 0 0 0 0 0 0 0 0 0 0 0 0 0 0 0 0 0 0 0 0 0 0 0 0 0 0 0 0 0 0 0 0 0 0 0 0 0 0 0 0 0 0 0 0 0 0 0 0 0 0 0 0 0 0 0 0 0 0 0 0 0 0 0 0 0 0 0 0 0 0 0 0 0 0 0 0 0 0 0 0 0 0 0 0 0 0 0 0 0 0 0 0 0 0 0 0 0 0 0 0 0 0 0 0 0 0 0 0 0 0 0 0 0 0 0 0 0 0 0 0 0 0 0 0 0 0 0 0 0 0 0 0 0 0 0 0 0 0 0 0 0 0 0 0 0 0 0 0 0 0 0 0 0 0 0 0 0 0 0 0 0 0 0 0 0 0 0 0 0 0 0 0 0 0 0 0 0 0 0 0 0 0 0 0 0 0 0 0 0 0 0 0 0 0 0 0 0 0 0 0 0 0 0 0 0 0 0 0 0 0 0 0 0 0 0 0 0 0 0 0 0 0 0 0 0 0 0 0 0 0 0 0 0 0 0 0 0 0 0 0 0 0 0 0 0 0 0 0 0 0 0 0 0 0 0 0 0 0 0 0 0 0 0 0 0 0 0 0 0 0 0 0 0 0 0 0 0 0 0 0 0 0 0 0 0 0 0 0 0 0 0 0 0 0 0 0 0 0 0 0 0 0 0 0 0 0 0 0 0 0 0 0 0 0 0 0 0 0 0 0 0 0 0 0 0 0 0 0 0 0 0 0 0 0 0 0 0 0 0 0 0 0 0 0 0 0 0 0 0 0 0 0 0 0 0 0 0 0 0 0 0 0 0 0 0 0 0 0 0 0 0 0 0 0 0 0 0 0 0 0 0 0 0 0 0 0 0 0 0 0 0 0 0 0 0 0 0 0 0 0 0 0 0 0 0 0 0 0 0 0 0 0 0 0 0 0 0 0 0 0 0 0 0 0 0 0 0 0 0 0 0 0 0 0 0 0 0 0 0 0 0 0 0 0 0 0 0 0 0 0 0 0 0 0 0 0 0 0 0 0 0 0 0 0 0 0 0 0 0 0 0 0 0 0 0 0 0 0 0 0 0 0 0 0 0 0 0 0 0 0 0 0 0 0 0 0 0 0 0 0 0 0 0 0 0 0 0 0 0 0 0 0 0 0 0 0 0 0 0 0 0 0 0 0 0 0 0 0 0 0 0 0 0 0 0 0 0 0 0 0 0 0 0 0 0 0 0 0 0 0 0 0 0 0 0 0 0 0 0 0 0 0 0 0 0 0 0 0 0 0 0 0 0 0 0 0 0 0 0 0 0 0 0 0 0 0 0 0 0 0 0 0 0 0 0 0 0 0 0 0 0 0 0 0 0 0 0 0 0 0 0 0 0 0 0 0 0 0 0 0 0 0 0 0 0 0 0 0 0 0 0 0 0 0 0 0 0 0 0 0 0 0 0 0 0 0 0 0 0 0 0 0 0 0 0 0 0 0 0 0 0 0 0 0 0 0 0 0 0 0 0 0 0 0 0 0 0 0 0 0 0 0 0 0 0 0 0 0 0 0 0 0 0 0 0 0 0 0 0 0 0 0 0 0 0 0 0 0 0 0 0 0 0 0 0 0 0 0 0 0 0 0 0 0 0 0 0 0 0 0 0 0 0 0 0 0 0 0 0 0 0 0 0 0 0 0 0 0 0 0 0 0 0 0 0 0 0 0 0 0 0 0 0 0 0 0 0 0 0 0 0 0 0 0 0 0 0 0 0 0 0 0 0 0 0 0 0 0 0 0 0 0 0 0 0 0 0 0 0 0 0 0 0 0 0 0 0 0 0 0 0 0 0 0 0 0 0 0 0 0 0 0 0 0 0 0 0 0 0 0 0 0 0 0 0 0 0 0 0 0 0 0 0 0 0 0 0 0 0 0 0 0 0 0 0 0 0 0 0 0 0 0 0 0 0 0 0 0 0 0 0 0 0 0 0 0 0 0 0 0 0 0 0 0 0 0 0 0 0 0 0 0 0 0 0 0 0 0 0 0 0 0 0 0 0 0 0 0 0 0 0 0 0 0 0 0 0 0 0 0 0 0 0 0 0 0 0 0 0 0 0 0 0 0 0 0 0 0 0 0 0 
        </DataArray>
        <DataArray type="Int32" Name="Rank" format="ascii">
0 0 0 0 0 0 0 0 0 0 0 0 0 0 0 0 0 0 0 0 0 0 0 0 0 0 0 0 0 0 0 0 0 0 0 0 0 0 0 0 0 0 0 0 0 0 0 0 0 0 0 0 0 0 0 0 0 0 0 0 0 0 0 0 0 0 0 0 0 0 0 0 0 0 0 0 0 0 0 0 0 0 0 0 0 0 0 0 0 0 0 0 0 0 0 0 0 0 0 0 0 0 0 0 0 0 0 0 0 0 0 0 0 0 0 0 0 0 0 0 0 0 0 0 0 0 0 0 0 0 0 0 0 0 0 0 0 0 0 0 0 0 0 0 0 0 0 0 0 0 0 0 0 0 0 0 0 0 0 0 0 0 0 0 0 0 0 0 0 0 0 0 0 0 0 0 0 0 0 0 0 0 0 0 0 0 0 0 0 0 0 0 0 0 0 0 0 0 0 0 0 0 0 0 0 0 0 0 0 0 0 0 0 0 0 0 0 0 0 0 0 0 0 0 0 0 0 0 0 0 0 0 0 0 0 0 0 0 0 0 0 0 0 0 0 0 0 0 0 0 0 0 0 0 0 0 0 0 0 0 0 0 0 0 0 0 0 0 0 0 0 0 0 0 0 0 0 0 0 0 0 0 0 0 0 0 0 0 0 0 0 0 0 0 0 0 0 0 0 0 0 0 0 0 0 0 0 0 0 0 0 0 0 0 0 0 0 0 0 0 0 0 0 0 0 0 0 0 0 0 0 0 0 0 0 0 0 0 0 0 0 0 0 0 0 0 0 0 0 0 0 0 0 0 0 0 0 0 0 0 0 0 0 0 0 0 0 0 0 0 0 0 0 0 0 0 0 0 0 0 0 0 0 0 0 0 0 0 0 0 0 0 0 0 0 0 0 0 0 0 0 0 0 0 0 0 0 0 0 0 0 0 0 0 0 0 0 0 0 0 0 0 0 0 0 0 0 0 0 0 0 0 0 0 0 0 0 0 0 0 0 0 0 0 0 0 0 0 0 0 0 0 0 0 0 0 0 0 0 0 0 0 0 0 0 0 0 0 0 0 0 0 0 0 0 0 0 0 0 0 0 0 0 0 0 0 0 0 0 0 0 0 0 0 0 0 0 0 0 0 0 0 0 0 0 0 0 0 0 0 0 0 0 0 0 0 0 0 0 0 0 0 0 0 0 0 0 0 0 0 0 0 0 0 0 0 0 0 0 0 0 0 0 0 0 0 0 0 0 0 0 0 0 0 0 0 0 0 0 0 0 0 0 0 0 0 0 0 0 0 0 0 0 0 0 0 0 0 0 0 0 0 0 0 0 0 0 0 0 0 0 0 0 0 0 0 0 0 0 0 0 0 0 0 0 0 0 0 0 0 0 0 0 0 0 0 0 0 0 0 0 0 0 0 0 0 0 0 0 0 0 0 0 0 0 0 0 0 0 0 0 0 0 0 0 0 0 0 0 0 0 0 0 0 0 0 0 0 0 0 0 0 0 0 0 0 0 0 0 0 0 0 0 0 0 0 0 0 0 0 0 0 0 0 0 0 0 0 0 0 0 0 0 0 0 0 0 0 0 0 0 0 0 0 0 0 0 0 0 0 0 0 0 0 0 0 0 0 0 0 0 0 0 0 0 0 0 0 0 0 0 0 0 0 0 0 0 0 0 0 0 0 0 0 0 0 0 0 0 0 0 0 0 0 0 0 0 0 0 0 0 0 0 0 0 0 0 0 0 0 0 0 0 0 0 0 0 0 0 0 0 0 0 0 0 0 0 0 0 0 0 0 0 0 0 0 0 0 0 0 0 0 0 0 0 0 0 0 0 0 0 0 0 0 0 0 0 0 0 0 0 0 0 0 0 0 0 0 0 0 0 0 0 0 0 0 0 0 0 0 0 0 0 0 0 0 0 0 0 0 0 0 0 0 0 0 0 0 0 0 0 0 0 0 0 0 0 0 0 0 0 0 0 0 0 0 0 0 0 0 0 0 0 0 0 0 0 0 0 0 0 0 0 0 0 0 0 0 0 0 0 0 0 0 0 0 0 0 0 0 0 0 0 0 0 0 0 0 0 0 0 0 0 0 0 0 0 0 0 0 0 0 0 0 0 0 0 0 0 0 0 0 0 0 0 0 0 0 0 0 0 0 0 0 0 0 0 0 0 0 0 0 0 0 0 0 0 0 0 0 0 0 0 0 0 0 0 0 0 0 0 0 0 0 0 0 0 0 0 0 0 0 0 0 0 0 0 0 0 0 
        </DataArray>
        <DataArray type="Int32" Name="Level" format="ascii">
1 1 1 1 1 1 1 1 1 1 1 1 1 1 1 1 1 1 1 1 1 1 1 1 1 1 1 1 1 1 1 1 1 1 1 1 1 1 1 1 1 1 1 1 1 1 1 1 1 1 1 1 1 1 1 1 1 1 1 1 1 1 1 1 1 1 1 1 1 1 1 1 1 1 1 1 1 1 1 1 1 1 1 1 1 1 1 1 1 1 1 1 1 1 1 1 1 1 1 1 1 1 1 1 1 1 1 1 1 1 1 1 1 1 1 1 1 1 1 1 1 1 1 1 1 1 1 1 1 1 1 1 1 1 1 1 1 1 1 1 1 1 1 1 1 1 1 1 1 1 1 1 1 1 1 1 1 1 1 1 1 1 1 1 1 1 1 1 1 1 1 1 1 1 1 1 1 1 1 1 1 1 1 1 1 1 1 1 1 1 1 1 1 1 1 1 1 1 1 1 1 1 1 1 1 1 1 1 1 1 1 1 1 1 1 1 1 1 1 1 1 1 1 1 1 1 1 1 1 1 1 1 1 1 1 1 1 1 1 1 1 1 1 1 1 1 1 1 1 1 1 1 1 1 1 1 1 1 1 1 1 1 1 1 1 1 1 1 1 1 1 1 1 1 1 1 1 1 1 1 1 1 1 1 1 1 1 1 1 1 1 1 1 1 1 1 1 1 1 1 1 1 1 1 1 1 1 1 1 1 1 1 1 1 1 1 1 1 1 1 1 1 1 1 1 1 1 1 1 1 1 1 1 1 1 1 1 1 1 1 1 1 1 1 1 1 1 1 1 1 1 1 1 1 1 1 1 1 1 1 1 1 1 1 1 1 1 1 1 1 1 1 1 1 1 1 1 1 1 1 1 1 1 1 1 1 1 1 1 1 1 1 1 1 1 1 1 1 1 1 1 1 1 1 1 1 1 1 1 1 1 1 1 1 1 1 1 1 1 1 1 1 1 1 1 1 1 1 1 1 1 1 1 1 1 1 1 1 1 1 1 1 1 1 1 1 1 1 1 1 1 1 1 1 1 1 1 1 1 1 1 1 1 1 1 1 1 1 1 1 1 1 1 1 1 1 1 1 1 1 1 1 1 1 1 1 1 1 1 1 1 1 1 1 1 1 1 1 1 1 1 1 1 1 1 1 1 1 1 1 1 1 1 1 1 1 1 1 1 1 1 1 1 1 1 1 1 1 1 1 1 1 1 1 1 1 1 1 1 1 1 1 1 1 1 1 1 1 1 1 1 1 1 1 1 1 1 1 1 1 1 1 1 1 1 1 1 1 1 1 1 1 1 1 1 1 1 1 1 1 1 1 1 1 1 1 1 1 1 1 1 1 1 1 1 1 1 1 1 1 1 1 1 1 1 1 1 1 1 1 1 1 1 1 1 1 1 1 1 1 1 1 1 1 1 1 1 1 1 1 1 1 1 1 1 1 1 1 1 1 1 1 1 1 1 1 1 1 1 1 1 1 1 1 1 1 1 1 1 1 1 1 1 1 1 1 1 1 1 1 1 1 1 1 1 1 1 1 1 1 1 1 1 1 1 1 1 1 1 1 1 1 1 1 1 1 1 1 1 1 1 1 1 1 1 1 1 1 1 1 1 1 1 1 1 1 1 1 1 1 1 1 1 1 1 1 1 1 1 1 1 1 1 1 1 1 1 1 1 1 1 1 1 1 1 1 1 1 1 1 1 1 1 1 1 1 1 1 1 1 1 1 1 1 1 1 1 1 1 1 1 1 1 1 1 1 1 1 1 1 1 1 1 1 1 1 1 1 1 1 1 1 1 1 1 1 1 1 1 1 1 1 1 1 1 1 1 1 1 1 1 1 1 1 1 1 1 1 1 1 1 1 1 1 1 1 1 1 1 1 1 1 1 1 1 1 1 1 1 1 1 1 1 1 1 1 1 1 1 1 1 1 1 1 1 1 1 1 1 1 1 1 1 1 1 1 1 1 1 1 1 1 1 1 1 1 1 1 1 1 1 1 1 1 1 1 1 1 1 1 1 1 1 1 1 1 1 1 1 1 1 1 1 1 1 1 1 1 1 1 1 1 1 1 1 1 1 1 1 1 1 1 1 1 1 1 1 1 1 1 1 1 1 1 1 1 1 1 1 1 1 1 1 1 1 1 1 1 1 1 1 1 1 1 1 1 1 1 1 1 1 1 1 1 1 1 1 1 1 1 1 1 1 1 1 1 1 1 1 1 1 1 1 1 1 1 1 1 1 1 1 1 1 1 1 1 1 1 1 1 
        </DataArray>
        <DataArray type="Int32" Name="IP_quality" format="ascii">
4 4 4 4 4 4 4 4 4 4 4 4 4 4 4 4 4 4 4 4 4 4 4 4 4 4 4 4 4 4 4 4 4 4 4 4 4 4 4 4 4 4 4 4 4 4 4 4 4 4 4 4 4 4 4 4 4 4 4 4 4 4 4 4 4 4 4 4 4 4 4 4 4 4 4 4 4 4 4 4 4 4 4 4 4 4 4 4 4 4 4 4 4 4 4 4 4 4 4 4 4 4 4 4 4 4 4 4 4 4 4 4 4 4 4 4 4 4 4 4 4 4 4 4 4 4 4 4 4 4 4 4 4 4 4 4 4 4 4 4 4 4 4 4 4 4 4 4 4 4 4 4 4 4 4 4 4 4 4 4 4 4 4 4 4 4 4 4 4 4 4 4 4 4 4 4 4 4 4 4 4 4 4 4 4 4 4 4 4 4 4 4 4 4 4 4 4 4 4 4 4 4 4 4 4 4 4 4 4 4 4 4 4 4 4 4 4 4 4 4 4 4 4 4 4 4 4 4 4 4 4 4 4 4 4 4 4 4 4 4 4 4 4 4 4 4 4 4 4 4 4 4 4 4 4 4 4 4 4 4 4 4 4 4 4 4 4 4 4 4 4 4 4 4 4 4 4 4 4 4 4 4 4 4 4 4 4 4 4 4 4 4 4 4 4 4 4 4 4 4 4 4 4 4 4 4 4 4 4 4 4 4 4 4 4 4 4 4 4 4 4 4 4 4 4 4 4 4 4 4 4 4 4 4 4 4 4 4 4 4 4 4 4 4 4 4 4 4 4 4 4 4 4 4 4 4 4 4 4 4 4 4 4 4 4 4 4 4 4 4 4 4 4 4 4 4 4 4 4 4 4 4 4 4 4 4 4 4 4 4 4 4 4 4 4 4 4 4 4 4 4 4 4 4 4 4 4 4 4 4 4 4 4 4 4 4 4 4 4 4 4 4 4 4 4 4 4 4 4 4 4 4 4 4 4 4 4 4 4 4 4 4 4 4 4 4 4 4 4 4 4 4 4 4 4 4 4 4 4 4 4 4 4 4 4 4 4 4 4 4 4 4 4 4 4 4 4 4 4 4 4 4 4 4 4 4 4 4 4 4 4 4 4 4 4 4 4 4 4 4 4 4 4 4 4 4 4 4 4 4 4 4 4 4 4 4 4 4 4 4 4 4 4 4 4 4 4 4 4 4 4 4 4 4 4 4 4 4 4 4 4 4 4 4 4 4 4 4 4 4 4 4 4 4 4 4 4 4 4 4 4 4 4 4 4 4 4 4 4 4 4 4 4 4 4 4 4 4 4 4 4 4 4 4 4 4 4 4 4 4 4 4 4 4 4 4 4 4 4 4 4 4 4 4 4 4 4 4 4 4 4 4 4 4 4 4 4 4 4 4 4 4 4 4 4 4 4 4 4 4 4 4 4 4 4 4 4 4 4 4 4 4 4 4 4 4 4 4 4 4 4 4 4 4 4 4 4 4 4 4 4 4 4 4 4 4 4 4 4 4 4 4 4 4 4 4 4 4 4 4 4 4 4 4 4 4 4 4 4 4 4 4 4 4 4 4 4 4 4 4 4 4 4 4 4 4 4 4 4 4 4 4 4 4 4 4 4 4 4 4 4 4 4 4 4 4 4 4 4 4 4 4 4 4 4 4 4 4 4 4 4 4 4 4 4 4 4 4 4 4 4 4 4 4 4 4 4 4 4 4 4 4 4 4 4 4 4 4 4 4 4 4 4 4 4 4 4 4 4 4 4 4 4 4 4 4 4 4 4 4 4 4 4 4 4 4 4 4 4 4 4 4 4 4 4 4 4 4 4 4 4 4 4 4 4 4 4 4 4 4 4 4 4 4 4 4 4 4 4 4 4 4 4 4 4 4 4 4 4 4 4 4 4 4 4 4 4 4 4 4 4 4 4 4 4 4 4 4 4 4 4 4 4 4 4 4 4 4 4 4 4 4 4 4 4 4 4 4 4 4 4 4 4 4 4 4 4 4 4 4 4 4 4 4 4 4 4 4 4 4 4 4 4 4 4 4 4 4 4 4 4 4 4 4 4 4 4 4 4 4 4 4 4 4 4 4 4 4 4 4 4 4 4 4 4 4 4 4 4 4 4 4 4 4 4 4 4 4 4 4 4 4 4 4 4 4 4 4 4 4 4 4 4 4 4 4 4 4 4 4 4 4 4 4 4 4 4 4 4 4 4 4 4 4 4 4 4 4 4 4 4 4 4 4 4 4 4 4 4 4 
        </DataArray>
      </CellData>
    </Piece>
  </PolyData>
</VTKFile>
