solid channel_flow_plate_top
   facet normal -1.000000e+00 -0.000000e+00 -0.000000e+00
      outer loop
         vertex -1.000000e-02 1.490090e-02 4.200000e-02
         vertex -1.000000e-02 1.490090e-02 -1.000000e-02
         vertex -1.000000e-02 1.390090e-02 4.200000e-02
      endloop
   endfacet
   facet normal -1.000000e+00 0.000000e+00 0.000000e+00
      outer loop
         vertex -1.000000e-02 1.390090e-02 4.200000e-02
         vertex -1.000000e-02 1.490090e-02 -1.000000e-02
         vertex -1.000000e-02 1.390090e-02 -1.000000e-02
      endloop
   endfacet
   facet normal 0.000000e+00 0.000000e+00 1.000000e+00
      outer loop
         vertex 9.800000e-02 1.490090e-02 4.200000e-02
         vertex -1.000000e-02 1.490090e-02 4.200000e-02
         vertex 9.800000e-02 1.390090e-02 4.200000e-02
      endloop
   endfacet
   facet normal 0.000000e+00 0.000000e+00 1.000000e+00
      outer loop
         vertex 9.800000e-02 1.390090e-02 4.200000e-02
         vertex -1.000000e-02 1.490090e-02 4.200000e-02
         vertex -1.000000e-02 1.390090e-02 4.200000e-02
      endloop
   endfacet
   facet normal 1.000000e+00 0.000000e+00 -0.000000e+00
      outer loop
         vertex 9.800000e-02 1.490090e-02 -1.000000e-02
         vertex 9.800000e-02 1.490090e-02 4.200000e-02
         vertex 9.800000e-02 1.390090e-02 -1.000000e-02
      endloop
   endfacet
   facet normal 1.000000e+00 0.000000e+00 0.000000e+00
      outer loop
         vertex 9.800000e-02 1.390090e-02 -1.000000e-02
         vertex 9.800000e-02 1.490090e-02 4.200000e-02
         vertex 9.800000e-02 1.390090e-02 4.200000e-02
      endloop
   endfacet
   facet normal 0.000000e+00 0.000000e+00 -1.000000e+00
      outer loop
         vertex -1.000000e-02 1.490090e-02 -1.000000e-02
         vertex 9.800000e-02 1.490090e-02 -1.000000e-02
         vertex -1.000000e-02 1.390090e-02 -1.000000e-02
      endloop
   endfacet
   facet normal 0.000000e+00 0.000000e+00 -1.000000e+00
      outer loop
         vertex -1.000000e-02 1.390090e-02 -1.000000e-02
         vertex 9.800000e-02 1.490090e-02 -1.000000e-02
         vertex 9.800000e-02 1.390090e-02 -1.000000e-02
      endloop
   endfacet
   facet normal 0.000000e+00 1.000000e+00 0.000000e+00
      outer loop
         vertex 9.800000e-02 1.490090e-02 4.200000e-02
         vertex 9.800000e-02 1.490090e-02 -1.000000e-02
         vertex -1.000000e-02 1.490090e-02 4.200000e-02
      endloop
   endfacet
   facet normal 0.000000e+00 1.000000e+00 0.000000e+00
      outer loop
         vertex -1.000000e-02 1.490090e-02 4.200000e-02
         vertex 9.800000e-02 1.490090e-02 -1.000000e-02
         vertex -1.000000e-02 1.490090e-02 -1.000000e-02
      endloop
   endfacet
   facet normal 0.000000e+00 -1.000000e+00 0.000000e+00
      outer loop
         vertex 9.800000e-02 1.390090e-02 -1.000000e-02
         vertex 9.800000e-02 1.390090e-02 4.200000e-02
         vertex -1.000000e-02 1.390090e-02 -1.000000e-02
      endloop
   endfacet
   facet normal 0.000000e+00 -1.000000e+00 0.000000e+00
      outer loop
         vertex -1.000000e-02 1.390090e-02 -1.000000e-02
         vertex 9.800000e-02 1.390090e-02 4.200000e-02
         vertex -1.000000e-02 1.390090e-02 4.200000e-02
      endloop
   endfacet
endsolid channel_flow_plate_top